<?xml version="1.0" encoding="UTF-8"?>
<svg version="1.1" xmlns="http://www.w3.org/2000/svg" width="1024" height="1024">
<path d="M0 0 C1.3168884 -0.00525911 1.3168884 -0.00525911 2.6603806 -0.01062447 C5.59888096 -0.01991998 8.53718234 -0.01501988 11.47569084 -0.01015663 C13.60514101 -0.01389382 15.73458981 -0.01849562 17.86403644 -0.02388728 C23.71356243 -0.03612425 29.56303126 -0.03585597 35.41256714 -0.03349853 C41.72223734 -0.03309053 48.03188917 -0.04412788 54.34155083 -0.05361366 C66.70308433 -0.07022881 79.06459489 -0.07574938 91.42613812 -0.07683842 C101.47493457 -0.07775792 111.52372485 -0.08187675 121.5725193 -0.08823967 C124.46631427 -0.0900348 127.36010924 -0.09181443 130.25390422 -0.09358943 C130.97333947 -0.09403152 131.69277471 -0.09447362 132.43401103 -0.09492911 C152.66851083 -0.10723625 172.90300849 -0.11513038 193.13751221 -0.11424255 C193.90026977 -0.1142114 194.66302734 -0.11418024 195.44889878 -0.11414814 C199.31475667 -0.11398193 203.18061456 -0.11378384 207.04647245 -0.11357872 C208.19810393 -0.11351889 208.19810393 -0.11351889 209.37300071 -0.11345784 C210.92558756 -0.11337697 212.47817442 -0.11329337 214.03076128 -0.11320706 C238.17973609 -0.11198189 262.32865471 -0.12698894 286.47761345 -0.15435219 C313.61795813 -0.18509242 340.75826589 -0.20228348 367.89862907 -0.20042574 C370.79431017 -0.20027649 373.68999127 -0.20017907 376.58567238 -0.20011711 C377.29864525 -0.2000938 378.01161813 -0.20007049 378.74619624 -0.20004648 C390.20599563 -0.199985 401.66574613 -0.21274171 413.12553099 -0.22998164 C424.64951982 -0.24695919 436.17341228 -0.24855313 447.69741149 -0.235763 C453.93708698 -0.22923383 460.17658583 -0.2291146 466.41624451 -0.2464695 C472.13333918 -0.26220715 477.85011724 -0.25932909 483.56720422 -0.24190123 C485.63045901 -0.2388329 487.69373747 -0.24245736 489.75696434 -0.25362138 C510.44101388 -0.35808887 526.99978706 3.4702205 542.25007439 18.40180016 C554.99152036 31.72654551 559.29155354 47.10179472 559.2546978 65.10594749 C559.25993448 66.37938871 559.26517116 67.65282992 559.27056652 68.96486026 C559.28466887 72.47885336 559.28641131 75.99275769 559.28596961 79.50677502 C559.28762457 83.30433148 559.30070308 87.10185208 559.3121624 90.89938927 C559.33495217 99.19031661 559.34292539 107.48121827 559.34798884 115.77217269 C559.35125061 120.95016468 559.35777568 126.12814928 559.36499023 131.30613708 C559.38454244 145.64864645 559.40095667 159.99114897 559.40386677 174.33367252 C559.40405434 175.25027416 559.40424191 176.1668758 559.40443516 177.11125325 C559.4048014 178.96928521 559.4051651 180.82731717 559.40552627 182.68534913 C559.40570908 183.60763978 559.4058919 184.52993044 559.40608025 185.4801693 C559.40635107 186.86529602 559.40635107 186.86529602 559.40662736 188.27840511 C559.41017338 203.26001897 559.43722853 218.24148949 559.47457813 233.2230536 C559.51263591 248.61188406 559.53202402 264.00064331 559.53232628 279.3895219 C559.53291115 288.02710105 559.54142342 296.66450883 559.57032394 305.30204391 C559.59480313 312.65165886 559.60214372 320.00103983 559.58707642 327.35068449 C559.57989517 331.10043002 559.58081691 334.84971317 559.60348701 338.5994072 C559.6278209 342.66312711 559.61347703 346.72578961 559.59527397 350.78954124 C559.60847394 351.97601004 559.62167391 353.16247883 559.63527387 354.38490123 C559.54401255 363.27341583 559.54401255 363.27341583 556.62962246 366.91150188 C553.98054314 369.25726891 553.98054314 369.25726891 550.98054314 371.25726891 C551.14554314 372.51539391 551.31054314 373.77351891 551.48054314 375.06976891 C551.80212554 377.52183476 551.98054314 379.77377585 551.98054314 382.25726891 C553.21030876 382.29465172 554.44007439 382.33203453 555.70710564 382.37055016 C557.33994715 382.43623918 558.97275832 382.5026855 560.60554314 382.56976891 C561.41378532 382.5923275 562.22202751 382.61488609 563.05476189 382.63812828 C568.04902679 382.86144907 571.64830426 383.51865113 575.98054314 386.25726891 C580.58030788 391.9673217 580.10515273 399.17638471 580.04304314 406.19476891 C580.03853142 406.87861656 580.0340197 407.56246422 580.02937126 408.26703453 C580.01773874 409.93048494 579.99981008 411.5938894 579.98054314 413.25726891 C580.89577751 413.38875328 581.81101189 413.52023766 582.75398064 413.65570641 C585.98054314 414.25726891 585.98054314 414.25726891 589.60554314 415.88226891 C593.38669339 417.44705303 593.38669339 417.44705303 596.98054314 416.25726891 C599.45275156 414.54591401 599.45275156 414.54591401 601.91804314 412.44476891 C602.75206657 411.75769859 603.58609001 411.07062828 604.44538689 410.36273766 C606.16934718 408.93097402 607.89060632 407.49595305 609.60944939 406.05805016 C613.6299401 403.00459674 617.03785455 402.69007513 621.98054314 403.25726891 C629.51020729 407.33087618 635.60896773 414.5817244 641.58259392 420.5985775 C643.36536358 422.39214885 645.15868123 424.17467924 646.95319939 425.95648766 C648.09576897 427.10037751 649.23771872 428.24488689 650.37898064 429.39008141 C650.91227989 429.9193322 651.44557915 430.44858299 651.99503899 430.99387169 C655.51670512 434.56042904 657.704123 437.13804786 658.35554314 442.13226891 C657.47295478 449.48717186 650.93463483 454.50684406 645.92976189 459.47601891 C643.67803849 462.10206947 643.67803849 462.10206947 644.05866814 465.26508141 C644.93934771 468.12355832 645.88739961 470.87363597 647.04304314 473.63226891 C647.4052697 474.50625328 647.76749626 475.38023766 648.14069939 476.28070641 C648.41784782 476.93297203 648.69499626 477.58523766 648.98054314 478.25726891 C649.85005608 478.32458214 649.85005608 478.32458214 650.73713493 478.39325523 C653.38202427 478.60553371 656.02484095 478.83745979 658.66804314 479.06976891 C660.03606071 479.17514977 660.03606071 479.17514977 661.43171501 479.28265953 C667.30456109 479.81655463 671.48849241 480.46832639 675.58396721 485.05171776 C677.24341255 487.67240705 677.36021987 489.14143481 677.36872673 492.22186852 C677.37818321 493.20646553 677.38763969 494.19106255 677.39738274 495.20549583 C677.39131004 496.26285439 677.38523735 497.32021294 677.37898064 498.40961266 C677.38185081 499.50189674 677.38472099 500.59418083 677.38767815 501.71956444 C677.38971882 504.02860597 677.38418879 506.33766478 677.37165642 508.6466732 C677.35561896 512.17807343 677.37149782 515.70832642 677.39069939 519.23969078 C677.38871665 521.48383393 677.38487236 523.72797636 677.37898064 525.97211266 C677.38505333 527.02744698 677.39112602 528.0827813 677.39738274 529.17009544 C677.30850995 538.4530426 677.30850995 538.4530426 673.98054314 542.25726891 C668.44700421 545.45050857 663.34095998 545.77714374 657.04304314 545.94476891 C655.73109978 545.99600914 655.73109978 545.99600914 654.39265251 546.04828453 C652.25571059 546.13002548 650.11815095 546.19534021 647.98054314 546.25726891 C647.89804314 547.22664391 647.81554314 548.19601891 647.73054314 549.19476891 C647.08063064 553.92845992 645.0574899 557.99711298 642.98054314 562.25726891 C643.39940788 562.66453209 643.81827263 563.07179527 644.24983025 563.49139977 C646.16043387 565.37228701 648.03875784 567.28260982 649.91804314 569.19476891 C650.57739861 569.83478844 651.23675407 570.47480797 651.91609001 571.13422203 C655.87335279 575.21324674 657.78197452 578.30648055 658.40070915 583.98602867 C657.29006011 589.98972885 652.0891905 594.46766556 647.92976189 598.64398766 C647.06421432 599.51952042 647.06421432 599.51952042 646.18118095 600.41274071 C644.9659689 601.63802372 643.74808164 602.86065877 642.52766228 604.08075523 C640.67333897 605.93946055 638.8356182 607.81358683 636.99812126 609.68890953 C635.80965087 610.88324762 634.62022869 612.0766395 633.42976189 613.26898766 C632.88784706 613.82527351 632.34593224 614.38155937 631.78759575 614.95470238 C627.69885953 618.9957094 623.66913131 621.81112499 617.78645134 622.52264977 C612.26779816 621.79992487 609.16920205 619.58190996 605.16804314 615.81976891 C604.05826479 614.82007238 602.94761829 613.82133859 601.83601189 612.82367516 C600.8937072 611.97676109 599.95140251 611.12984703 598.98054314 610.25726891 C596.24979257 607.97587711 596.24979257 607.97587711 593.62507439 608.50336266 C590.88352858 609.28492594 588.30228627 610.23094841 585.66804314 611.31976891 C584.78503532 611.68199547 583.90202751 612.04422203 582.99226189 612.41742516 C582.3283947 612.69457359 581.66452751 612.97172203 580.98054314 613.25726891 C580.93155876 614.48703453 580.88257439 615.71680016 580.83210564 616.98383141 C580.75703285 618.61666457 580.68148699 620.24947603 580.60554314 621.88226891 C580.57460564 622.69051109 580.54366814 623.49875328 580.51179314 624.33148766 C580.07163964 633.35463425 580.07163964 633.35463425 577.98054314 637.25726891 C572.18778201 642.38112159 566.61539935 642.99961108 559.12898064 642.92133141 C558.11131615 642.92611504 557.09365166 642.93089867 556.04514885 642.93582726 C553.90543372 642.9392135 551.76566594 642.93010099 549.62605095 642.90912437 C546.35762475 642.882286 543.09261513 642.90894545 539.82429314 642.94086266 C537.73834809 642.93755942 535.65240516 642.93115497 533.56648064 642.92133141 C532.59447716 642.93145256 531.62247368 642.94157372 530.62101555 642.95200157 C526.1414235 642.8748157 522.95876735 642.73232266 519.38068962 639.86810875 C516.86395217 637.13044317 516.12687548 635.88370281 515.66804314 632.25726891 C515.54042595 631.31238609 515.41280876 630.36750328 515.28132439 629.39398766 C514.76590956 624.01894728 514.30617881 618.64739626 513.98054314 613.25726891 C512.23147783 612.60890849 510.48125094 611.96368107 508.73054314 611.31976891 C507.26874626 610.78029625 507.26874626 610.78029625 505.77741814 610.22992516 C504.85444939 609.90894859 503.93148064 609.58797203 502.98054314 609.25726891 C502.32972771 609.02676842 501.67891228 608.79626793 501.00837517 608.55878258 C498.61694606 607.96914412 498.61694606 607.96914412 495.73835564 610.46039391 C494.51704366 611.46351943 493.30641963 612.47976736 492.10554314 613.50726891 C481.86844058 622.11524116 481.86844058 622.11524116 475.16804314 622.44476891 C471.24746885 621.82883499 469.9248 620.19463261 467.39814091 617.24386787 C460.5116856 610.99808516 451.84606386 612.17327764 443.11147881 612.28418541 C441.17089663 612.27942773 439.23032045 612.27114522 437.28976649 612.25964999 C431.96653036 612.23821845 426.64454327 612.26647283 421.32143104 612.30283713 C415.57687087 612.33330273 409.83241792 612.31747011 404.08781242 612.30711937 C394.13492783 612.2953429 384.18242776 612.3123545 374.22960663 612.34849358 C359.82433572 612.40040461 345.41935732 612.40434403 331.0140098 612.39587173 C307.6218489 612.38304338 284.22984125 612.40286369 260.83772087 612.44623375 C259.4237636 612.4488432 258.00980633 612.45145193 256.59584906 612.45405993 C255.54500386 612.45600042 255.54500386 612.45600042 254.47292947 612.45798011 C250.92891792 612.46452251 247.38490633 612.47104694 243.8408947 612.47754478 C243.1381972 612.47883697 242.4354997 612.48012915 241.71150833 612.48146049 C225.39942103 612.51128465 209.08732713 612.5308847 192.77522087 612.54681969 C192.07666716 612.54751009 191.37811345 612.5482005 190.65839144 612.54891183 C174.69928929 612.5645956 158.7401932 612.5755033 142.78108311 612.57705879 C142.10966865 612.57712912 141.43825418 612.57719945 140.74649383 612.57727191 C133.37975271 612.577993 126.01301207 612.57796393 118.64627093 612.57729316 C104.28051536 612.57702883 89.91494667 612.59327844 75.5492396 612.6310114 C65.70214559 612.65622086 55.85509804 612.66788889 46.00797198 612.66899905 C40.3292651 612.67022628 34.65076797 612.67815571 28.97211456 612.7038002 C23.76764327 612.72724099 18.56348833 612.73211185 13.35897597 612.72263405 C11.48214505 612.72249287 9.60529813 612.72908808 7.72852121 612.74332622 C-10.85687001 612.8773257 -26.99946586 609.38257307 -41.14445686 596.26898766 C-53.0170819 583.53065038 -59.18950655 568.98899011 -59.15088463 551.61887741 C-59.15293726 550.75785567 -59.1549899 549.89683393 -59.15710473 549.00972062 C-59.16277133 546.11674832 -59.16131789 543.22382367 -59.15989876 540.33084679 C-59.16248259 538.23882162 -59.1654958 536.14679696 -59.16890216 534.05477297 C-59.17697331 528.29949447 -59.1787618 522.54422845 -59.17949963 516.78894496 C-59.18134997 510.58426055 -59.18889721 504.37958263 -59.19563484 498.17490196 C-59.20992783 483.89698714 -59.21574479 469.6190764 -59.22032679 455.34115595 C-59.22266355 448.28392633 -59.22626629 441.22669753 -59.23002216 434.16946855 C-59.24285686 410.00674703 -59.25357617 385.84402597 -59.25702477 361.68130112 C-59.2572464 360.16481925 -59.25746818 358.64833739 -59.25769012 357.13185553 C-59.25791076 355.61173485 -59.25813124 354.09161418 -59.25835156 352.57149351 C-59.25879411 349.52192775 -59.25924123 346.472362 -59.25969124 343.42279625 C-59.25980063 342.66668259 -59.25991002 341.91056893 -59.26002273 341.13154273 C-59.26365306 316.61658555 -59.27957262 292.10165795 -59.3028816 267.58671211 C-59.32748637 241.66148979 -59.3411979 215.73628438 -59.34239268 189.81105006 C-59.34256413 186.96424142 -59.34277956 184.11743279 -59.34302711 181.27062416 C-59.34308288 180.56967179 -59.34313865 179.86871943 -59.34319611 179.14652608 C-59.34434598 167.87405567 -59.35536252 156.60161564 -59.36991417 145.32915548 C-59.38429177 133.99540799 -59.38725684 122.66171035 -59.37947419 111.32795231 C-59.37556642 105.18982811 -59.37650366 99.05180603 -59.39053154 92.91369438 C-59.40326245 87.29166132 -59.40207988 81.66980718 -59.38994083 76.04777439 C-59.38798245 74.01679638 -59.39106874 71.98580573 -59.39978519 69.95484547 C-59.47931075 50.16819672 -56.37373322 33.12984768 -42.27922249 18.31952477 C-30.72260269 6.74914709 -16.39613258 -0.08378438 0 0 Z " fill="#181E2A" transform="translate(218.01945686340332,164.74273109436035)"/>
<path d="M0 0 C190.74 0 381.48 0 578 0 C578.33 70.62 578.66 141.24 579 214 C583.94615939 218.99780176 583.94615939 218.99780176 590 221 C590.54466387 225.084979 591 228.8725485 591 233 C589.76697144 233.02187378 589.76697144 233.02187378 588.5090332 233.04418945 C584.77638677 233.11876333 581.04462541 233.21539512 577.3125 233.3125 C576.01892578 233.33505859 574.72535156 233.35761719 573.39257812 233.38085938 C572.14541016 233.41630859 570.89824219 233.45175781 569.61328125 233.48828125 C568.46641846 233.51446533 567.31955566 233.54064941 566.13793945 233.56762695 C562.65023998 234.04819303 560.77063033 234.8477839 558 237 C555.98065163 239.9542749 555.65416866 242.6773565 555.3671875 246.203125 C555.28339844 247.1828125 555.19960938 248.1625 555.11328125 249.171875 C554.99533203 250.69554687 554.99533203 250.69554687 554.875 252.25 C554.78863281 253.28125 554.70226562 254.3125 554.61328125 255.375 C554.40151817 257.91615699 554.19736846 260.45769121 554 263 C551.91999989 263.84161854 549.83585854 264.67300763 547.75 265.5 C546.58984375 265.9640625 545.4296875 266.428125 544.234375 266.90625 C541 268 541 268 537 268 C534.703125 266.20703125 534.703125 266.20703125 532.25 263.8125 C524.80563931 256.76237922 524.80563931 256.76237922 515.375 253.4375 C508.53881764 254.57686373 504.01438862 259.69687229 499.32421875 264.4453125 C498.71359085 265.05639862 498.10296295 265.66748474 497.47383118 266.29708862 C496.19330787 267.58061643 494.91519897 268.8665571 493.6394043 270.15478516 C491.68139251 272.13116478 489.71538437 274.09931373 487.74804688 276.06640625 C486.50212934 277.31723555 485.25667013 278.56852158 484.01171875 279.8203125 C483.12899544 280.70470505 483.12899544 280.70470505 482.22843933 281.60696411 C478.895061 284.97964186 477.22911491 286.73986797 476.375 291.4375 C476.42278432 298.01978987 481.88364182 302.37495366 486 307 C487.20656969 308.54782172 488.3970843 310.10845955 489.5625 311.6875 C490.03816406 312.33074219 490.51382812 312.97398437 491.00390625 313.63671875 C491.33261719 314.08660156 491.66132812 314.53648437 492 315 C490.7861887 320.28283784 489.36401898 325.48541658 485 329 C477.36394092 331.44220679 468.94539848 331.14650169 461 331 C460.9906543 329.72995117 460.98130859 328.45990234 460.97167969 327.15136719 C460.93146021 322.38735351 460.86561602 317.62396413 460.79248047 312.86035156 C460.76445471 310.80835052 460.74314981 308.75624522 460.72900391 306.70410156 C460.63328278 285.18053843 460.63328278 285.18053843 450 267 C449.36320312 266.31035156 448.72640625 265.62070312 448.0703125 264.91015625 C439.43526995 256.41744957 429.1818766 253.45616721 417.2649821 253.33594507 C415.95630235 253.3477808 414.6476226 253.35961653 413.29928589 253.37181091 C411.8604663 253.36675379 410.42165305 253.35951602 408.98285401 253.35031277 C405.06549861 253.33152929 401.1487746 253.34354448 397.23143601 253.3610357 C392.99280014 253.37448152 388.7542523 253.35894702 384.515625 253.34721375 C376.22711171 253.32888727 367.93883501 253.33731557 359.65032922 253.35530197 C352.91206296 253.36935695 346.17386071 253.37321455 339.43558121 253.3698597 C338.47469282 253.36938225 337.51380443 253.36890481 336.5237982 253.3684129 C334.57148518 253.36738652 332.61917216 253.36633116 330.66685916 253.36524714 C313.42515709 253.35669041 296.18356889 253.37332268 278.94189453 253.40307617 C262.22700215 253.43192004 245.51227373 253.43899151 228.79736328 253.42358398 C210.57479278 253.40680961 192.35230003 253.40279953 174.12972748 253.42029434 C172.18541408 253.42213865 170.24110068 253.42397338 168.29678726 253.42579842 C166.86199571 253.42716655 166.86199571 253.42716655 165.39821848 253.42856232 C158.67008673 253.43415934 151.94199305 253.43086842 145.21386337 253.42425346 C137.01176313 253.41650909 128.80982408 253.42331288 120.60775624 253.4484285 C116.42607251 253.46089689 112.2446394 253.46710245 108.06294632 253.45588684 C104.22986052 253.44580056 100.3972731 253.45439649 96.56424762 253.47746802 C94.53201481 253.48501946 92.49973791 253.47311763 90.46753109 253.46036428 C78.19194402 253.57097205 68.33832008 256.9206002 59 265 C50.77227423 273.62177394 46.86618535 283.0002525 46.82299805 294.80688477 C46.81642685 295.58959244 46.80985565 296.37230011 46.80308533 297.1787262 C46.7833953 299.7662873 46.77169648 302.35379033 46.76171875 304.94140625 C46.75764322 305.82867842 46.7535677 306.71595058 46.74936867 307.63010979 C46.72852164 312.33063395 46.71421659 317.03112909 46.70483398 321.73168945 C46.69380002 326.56446433 46.6594312 331.39677492 46.61966228 336.22938633 C46.59339157 339.96399229 46.58513269 343.69848964 46.58155251 347.43317986 C46.57670992 349.21320655 46.56516313 350.99322916 46.54651451 352.77316475 C46.40078067 367.61052719 48.35629649 379.57741332 58.77734375 390.9375 C66.65046658 398.40811144 76.21393293 402.11855732 86.99091625 402.13142776 C88.19995938 402.13526891 89.4090025 402.13911005 90.65468329 402.1430676 C91.99294871 402.14228741 93.33121407 402.14140864 94.66947937 402.14044189 C96.09384946 402.14302644 97.51821883 402.14603985 98.9425872 402.1494453 C102.8569325 402.15750804 106.77125946 402.15930446 110.68561208 402.16004276 C114.90730046 402.16189458 119.12897935 402.16944257 123.35066223 402.17617798 C132.58214683 402.1897567 141.81362708 402.19578531 151.04512 402.20018864 C156.81007272 402.20295185 162.57502377 402.20718936 168.33997536 402.21169281 C184.30362562 402.2238849 200.26727455 402.23418432 216.23092937 402.2375679 C217.76333278 402.23789725 217.76333278 402.23789725 219.32669382 402.23823325 C220.86274919 402.23856067 220.86274919 402.23856067 222.42983598 402.2388947 C224.50490042 402.23933817 226.57996486 402.23978473 228.6550293 402.24023438 C229.6843314 402.2404558 230.7136335 402.24067723 231.77412657 402.24090537 C248.45071149 402.24485299 265.12725271 402.26230616 281.80382075 402.2855939 C298.92823699 402.30931387 316.05263131 402.32177005 333.17706424 402.32293582 C342.79064585 402.32385222 352.40417052 402.32959572 362.01773643 402.34775543 C370.20427855 402.36316512 378.39074611 402.36827175 386.57729997 402.36001733 C390.75270418 402.3561139 394.92795829 402.35702538 399.10334396 402.37107468 C402.92981314 402.38383197 406.75601973 402.38260017 410.58248863 402.37048396 C412.6138695 402.36760838 414.64525498 402.37944886 416.67659968 402.39190602 C429.27329322 402.32398075 440.47905313 399.57005038 449.59375 390.38671875 C451.18456681 388.60711829 452.75069162 386.80497553 454.28515625 384.9765625 C454.85105469 384.32429688 455.41695312 383.67203125 456 383 C456.33 383 456.66 383 457 383 C457.20625 384.0725 457.4125 385.145 457.625 386.25 C459.32334144 390.8818403 460.69118169 391.72001957 465 394 C467.80237125 394.41153704 470.26432577 394.64830988 473.0625 394.6875 C475.71052389 394.76863722 478.35319516 394.87682914 481 395 C481.93199219 395.03996094 482.86398437 395.07992188 483.82421875 395.12109375 C486 396 486 396 487.546875 398.8359375 C487.94390625 400.00382812 488.3409375 401.17171875 488.75 402.375 C489.36101562 404.11910156 489.36101562 404.11910156 489.984375 405.8984375 C490.48710938 407.43371094 490.48710938 407.43371094 491 409 C491.33 409.99 491.66 410.98 492 412 C491.58113525 412.4439209 491.16227051 412.8878418 490.73071289 413.34521484 C488.83889784 415.35288747 486.95066439 417.36389391 485.0625 419.375 C484.40314453 420.07367187 483.74378906 420.77234375 483.06445312 421.4921875 C482.43603516 422.1625 481.80761719 422.8328125 481.16015625 423.5234375 C480.57886963 424.14138184 479.99758301 424.75932617 479.39868164 425.39599609 C476.77698472 428.40255026 476.82352963 430.91175894 476.671875 434.83203125 C477.10418606 437.68837217 478.48072449 439.57191694 480 442 C423.36949272 442.0915496 366.73899281 442.16203573 310.10842608 442.20426132 C303.42311401 442.20926416 296.73780208 442.2144368 290.05249023 442.21972656 C289.054598 442.22051112 289.054598 442.22051112 288.03654632 442.22131152 C266.48160441 442.23835056 244.92670451 442.26839104 223.37178804 442.30518888 C200.58908615 442.34401203 177.80640587 442.36798854 155.02367145 442.37635398 C141.3778999 442.38184322 127.73224894 442.39918247 114.08651451 442.43166587 C104.72992569 442.45280486 95.37339924 442.45920141 86.01678827 442.45400551 C80.61800742 442.45144281 75.21943736 442.45537954 69.82069397 442.4768219 C64.87505964 442.49632102 59.92977738 442.49724805 54.98412666 442.48359558 C53.19793298 442.48190881 51.41171711 442.48695438 49.62556692 442.49953273 C34.39118495 442.60055036 22.2417476 439.9101419 10.8125 429.3125 C-0.23981062 417.73905882 -0.2992109 403.55309587 -0.24050903 388.42208862 C-0.241385 386.74695266 -0.24314089 385.07181698 -0.24569702 383.39668274 C-0.25016826 378.80351114 -0.24217619 374.21043335 -0.23214546 369.61727366 C-0.22339495 364.58431757 -0.22633582 359.55136562 -0.2277813 354.51840401 C-0.22884347 344.75420655 -0.21961999 334.99004597 -0.20677864 325.22585798 C-0.19236654 313.92864454 -0.19078847 302.63145317 -0.18920898 291.33422852 C-0.17871257 261.51447984 -0.15079029 231.69473937 -0.125 201.875 C-0.08375 135.25625 -0.0425 68.6375 0 0 Z " fill="#F3F6F9" transform="translate(179,315)"/>
<path d="M0 0 C1.70362283 -0.00374058 3.40724395 -0.00834373 5.11086237 -0.01373065 C9.77397133 -0.02592523 14.43700835 -0.02570438 19.1001296 -0.02334189 C24.13636974 -0.02293284 29.17258708 -0.03398121 34.20881653 -0.04345703 C44.06814024 -0.06004769 53.92744003 -0.06556567 63.78677653 -0.06668179 C71.80178987 -0.06763301 79.81679533 -0.07174703 87.83180618 -0.07808304 C110.56633997 -0.09568882 133.3008549 -0.10492274 156.03539555 -0.10342209 C157.26021801 -0.10334218 158.48504047 -0.10326227 159.74697876 -0.10317993 C160.97329992 -0.10309817 162.19962108 -0.10301641 163.46310349 -0.10293217 C183.34219562 -0.10211907 203.22121201 -0.12126448 223.10028224 -0.14945666 C243.52224627 -0.17818986 263.94417337 -0.19199677 284.36615813 -0.19026911 C295.82750564 -0.18960545 307.28877371 -0.19508777 318.750103 -0.21662521 C328.50689274 -0.23484252 338.26356702 -0.23917964 348.02036642 -0.22560637 C352.9960581 -0.21908004 357.9715283 -0.21894761 362.94719887 -0.23631287 C367.5070053 -0.25206285 372.06641497 -0.24916029 376.62621184 -0.2317446 C378.27080105 -0.228679 379.91542001 -0.23229043 381.55997412 -0.24346475 C396.82919236 -0.34029813 410.29379507 2.80430552 421.8866272 13.39242554 C430.92716468 23.05423219 434.50344309 33.86587384 434.48965454 46.79769897 C434.49637177 47.71593445 434.50308899 48.63416992 434.51000977 49.58023071 C434.52890358 52.59581006 434.53290972 55.61116579 434.5350647 58.62680054 C434.54149901 60.73896371 434.54822784 62.85112601 434.55523682 64.96328735 C434.56718836 69.38467473 434.57091986 73.8059841 434.56973267 78.22738647 C434.5695297 83.86706893 434.59681895 89.50624624 434.63127708 95.14580917 C434.65361725 99.50754044 434.65756801 103.86915155 434.65651321 108.23093414 C434.65885895 110.30876657 434.66762396 112.38660283 434.68317795 114.46437836 C434.79855426 131.46973088 433.18028178 144.53155227 421.13272095 157.49008179 C412.3579085 165.8881581 401.04458708 170.5110091 388.89289665 170.52469444 C387.8356108 170.52995355 387.8356108 170.52995355 386.75696564 170.53531891 C384.40117063 170.54460368 382.04562443 170.53971721 379.68981934 170.53485107 C377.98124876 170.53858882 376.27267989 170.54319084 374.56411374 170.54858172 C369.87335439 170.56081198 365.18266637 170.56055121 360.49189472 170.55819297 C355.43104262 170.5577848 350.37021339 170.56882401 345.30937195 170.57830811 C335.39515868 170.59491984 325.4809692 170.60041775 315.56674318 170.60153286 C307.50637683 170.60248337 299.44601832 170.6065938 291.38565445 170.61293411 C268.52778684 170.63054794 245.66993801 170.6397729 222.81206356 170.63827316 C221.57983362 170.63819325 220.34760369 170.63811334 219.07803345 170.63803101 C217.84429686 170.63794924 216.61056028 170.63786748 215.33943774 170.63778324 C195.35089965 170.63697057 175.36243695 170.6561031 155.37392066 170.68430774 C134.84469563 170.71304646 114.31550734 170.72684745 93.78626168 170.72512019 C82.26279843 170.72445657 70.7394142 170.72993638 59.21596909 170.75147629 C49.40314078 170.76970117 39.59042729 170.77402473 29.77758937 170.76045744 C24.77344136 170.7539341 19.76951355 170.75378772 14.76538658 170.77116394 C10.17826948 170.78692789 5.59154657 170.78399714 1.00443889 170.76659568 C-0.64900603 170.76353306 -2.30248062 170.76713014 -3.95589055 170.77831583 C-17.82066727 170.86585086 -29.55364518 168.90453704 -40.8008728 160.26742554 C-41.6671228 159.68992554 -42.5333728 159.11242554 -43.4258728 158.51742554 C-51.86078326 150.52645774 -57.5059615 139.05488788 -57.94804382 127.38121033 C-57.96311276 125.77895032 -57.97265527 124.17663266 -57.97787476 122.5743103 C-57.98444595 121.69727951 -57.99101715 120.82024872 -57.99778748 119.91664124 C-58.0174945 117.01403714 -58.02918118 114.11148489 -58.03915405 111.20883179 C-58.04322958 110.2137303 -58.04730511 109.21862881 -58.05150414 108.19337273 C-58.07236004 102.91996342 -58.08666034 97.64658004 -58.09603882 92.37313843 C-58.10706466 86.95317742 -58.14142169 81.53363132 -58.18121052 76.11381626 C-58.20749601 71.92447707 -58.21574151 67.73523462 -58.2193203 63.54582024 C-58.22416036 61.54974523 -58.23569973 59.55367379 -58.25435829 57.55768013 C-58.41157807 39.61490597 -56.23469226 26.22884144 -43.6758728 12.57992554 C-31.18438915 0.57130596 -16.32651423 -0.03406989 0 0 Z " fill="#FDFDFE" transform="translate(279.8008728027344,361.7325744628906)"/>
<path d="M0 0 C0.86715592 -0.00265183 1.73431184 -0.00530365 2.62774521 -0.00803584 C5.5536242 -0.01573755 8.47946128 -0.01628835 11.40534973 -0.01688576 C13.51627305 -0.02089981 15.6271956 -0.02533793 17.73811722 -0.03016531 C23.55491926 -0.04214312 29.371713 -0.04778207 35.18852496 -0.05234647 C41.45596026 -0.05829799 47.72338561 -0.06990897 53.99081421 -0.08063698 C68.41910265 -0.10401151 82.8473915 -0.11856961 97.27569285 -0.13086639 C102.26807489 -0.13512149 107.26045656 -0.13968723 112.25283813 -0.14444971 C138.80091525 -0.16971102 165.34899298 -0.19175786 191.89707947 -0.20417786 C198.04786684 -0.20709916 204.1986542 -0.21006668 210.34944153 -0.21308327 C211.11359518 -0.21345418 211.87774882 -0.21382509 212.66505864 -0.21420723 C237.43591215 -0.2263604 262.20669457 -0.25730068 286.9775147 -0.29900479 C312.44588499 -0.34180504 337.91421774 -0.36842048 363.38262497 -0.37365257 C366.98090834 -0.374393 370.57919166 -0.37530368 374.17747498 -0.37631035 C375.23971665 -0.37659627 375.23971665 -0.37659627 376.32341776 -0.37688797 C387.71318413 -0.38039948 399.10286138 -0.40068785 410.49259504 -0.42710699 C421.94535169 -0.45327133 433.39796698 -0.46055684 444.85075647 -0.4500057 C451.0537451 -0.44481598 457.25645068 -0.44772681 463.45939827 -0.47247124 C469.14082435 -0.49494601 474.82176376 -0.49423703 480.50319827 -0.47526737 C482.5557752 -0.47246493 484.60838502 -0.47807932 486.66090906 -0.4930803 C501.91763747 -0.59774438 514.0021563 1.13665398 525.52961731 12.13701439 C547.74837427 35.99608227 536.52961731 85.38681178 536.52961731 108.13701439 C345.78961731 108.13701439 155.04961731 108.13701439 -41.47038269 108.13701439 C-41.47038269 24.31124306 -41.47038269 24.31124306 -29.34538269 11.26201439 C-20.81503867 3.2964979 -11.42466868 -0.01691305 0 0 Z " fill="#F4F7F9" transform="translate(220.4703826904297,185.8629856109619)"/>
<path d="M0 0 C1.4005318 -0.00433574 2.80105823 -0.01085782 4.20157093 -0.01936007 C8.02696688 -0.03627214 11.85170343 -0.02222662 15.6770643 -0.00284529 C19.81141187 0.01263372 23.94568135 -0.0008335 28.08003235 -0.0105896 C36.16977255 -0.02509196 44.25926118 -0.01290684 52.34897751 0.00852364 C61.77455383 0.03257353 71.20007298 0.03081683 80.62567317 0.02821773 C97.44540144 0.02453016 114.26501142 0.04533113 131.08470154 0.07946777 C147.39723194 0.1125627 163.70963823 0.12672485 180.02220154 0.1204834 C197.79682125 0.11371597 215.57138903 0.11618925 233.34600109 0.1358428 C234.28631829 0.13688229 235.22663549 0.13792177 236.19544716 0.13899276 C238.08388952 0.14108361 239.97233186 0.14319458 241.86077418 0.14532593 C248.42749726 0.15221468 254.99420432 0.15289198 261.56093025 0.15144348 C269.56514662 0.15000225 277.56926193 0.15972262 285.57344479 0.18338984 C289.65558283 0.19523138 293.7375802 0.20238726 297.81973457 0.19655228 C301.559627 0.19136454 305.29922277 0.20012444 309.03906452 0.21982688 C311.02618949 0.2267802 313.01334918 0.21913827 315.00046927 0.21090555 C323.12671946 0.27261532 331.52732999 0.71270431 337.86326599 6.43395996 C338.39693787 6.89415527 338.93060974 7.35435059 339.48045349 7.82849121 C343.55210189 12.67016638 344.43112749 17.36470315 344.39231873 23.51940918 C344.4026136 24.67187637 344.4026136 24.67187637 344.41311646 25.84762573 C344.43133755 28.37399052 344.42755328 30.89973139 344.42185974 33.42614746 C344.42642431 35.19202881 344.4317307 36.95790839 344.43774414 38.7237854 C344.44666642 42.42070746 344.44426281 46.11741341 344.43431091 49.81433105 C344.42283148 54.53755896 344.44302126 59.26003808 344.47222805 63.98316765 C344.49063086 67.62933036 344.49028933 71.27531507 344.48459053 74.9215126 C344.48443777 76.66213149 344.49044488 78.40276279 344.502882 80.14333725 C344.51786527 82.5842673 344.50706206 85.02383248 344.48997498 87.46472168 C344.49964294 88.17459229 344.50931091 88.88446289 344.51927185 89.61584473 C344.42786923 95.89384285 342.35532499 101.18505353 337.98826599 105.68005371 C337.32826599 106.13509277 336.66826599 106.59013184 335.98826599 107.05895996 C335.32826599 107.5320459 334.66826599 108.00513184 333.98826599 108.49255371 C330.13781985 110.66595007 326.54161682 110.74762108 322.17448711 110.75288773 C320.97951853 110.75672887 319.78454994 110.76057002 318.55337018 110.76452756 C316.58195301 110.76322784 316.58195301 110.76322784 314.57070923 110.76190186 C313.1615633 110.76448565 311.75241811 110.76749885 310.34327394 110.77090526 C306.46648371 110.77897675 302.58971199 110.78076491 298.71291435 110.78150272 C294.53352923 110.783353 290.35415373 110.79090016 286.17477417 110.79763794 C277.03433799 110.81122242 267.89390619 110.81724604 258.7534616 110.8216486 C253.04733356 110.82441059 247.34120723 110.82864784 241.63508034 110.83315277 C225.83960037 110.84534514 210.04412177 110.85564481 194.2486372 110.85902786 C193.23761557 110.85924743 192.22659394 110.85946699 191.18493529 110.85969321 C190.17148369 110.85991149 189.1580321 110.86012977 188.11386985 110.86035466 C186.06020176 110.86079813 184.00653368 110.86124469 181.9528656 110.86169434 C180.42482749 110.86202648 180.42482749 110.86202648 178.86591993 110.86236534 C162.35537423 110.86631429 145.84487264 110.88377142 129.33434399 110.90705386 C112.38738582 110.93075906 95.4404498 110.94322932 78.49347478 110.94439578 C68.97666574 110.94531296 59.45991418 110.95107617 49.94312096 110.96921539 C41.84027758 110.9846051 33.73750946 110.98974349 25.63465425 110.98147729 C21.5001335 110.9775669 17.36576436 110.97851934 13.23126221 110.99253464 C9.44561826 111.0052501 5.6602402 111.00409691 1.87459675 110.99194393 C-0.14214873 110.98905447 -2.15889871 111.00094047 -4.17560798 111.01336598 C-12.06776582 110.97012651 -16.86250194 110.09124095 -23.63673401 106.05895996 C-32.0397843 97.43477677 -31.72668566 87.29270449 -31.60548401 76.01208496 C-31.60376988 74.31439295 -31.60384166 72.6166983 -31.60560608 70.91900635 C-31.60396075 67.37864514 -31.58540202 63.83892323 -31.5537262 60.29870605 C-31.51392903 55.77050335 -31.50969995 51.2431311 -31.51718903 46.71478653 C-31.52026292 43.21623176 -31.50812532 39.71786229 -31.49105835 36.21935272 C-31.48405144 34.54967155 -31.480901 32.8799694 -31.48175049 31.21027374 C-31.47994532 28.8772248 -31.45850746 26.54515839 -31.43165588 24.21228027 C-31.43458649 23.52955551 -31.43751709 22.84683075 -31.4405365 22.14341736 C-31.32351697 15.52745292 -28.6495431 10.25926905 -24.01173401 5.62145996 C-16.25842595 0.36709345 -9.15899903 -0.08930844 0 0 Z " fill="#03D3D6" transform="translate(276.01173400878906,587.3785400390625)"/>
<path d="M0 0 C7.26 0 14.52 0 22 0 C22.8125 7.625 22.8125 7.625 23.04614258 9.99072266 C23.62895266 15.0086219 24.48947975 19.95528712 28.62109375 23.3203125 C29.22050781 23.58585938 29.81992187 23.85140625 30.4375 24.125 C31.14132812 24.43953125 31.84515625 24.7540625 32.5703125 25.078125 C36.29736117 26.49224636 40.10227184 27.6505284 43.90234375 28.8515625 C48.03961678 30.38543169 51.68353785 32.51398974 55.4296875 34.828125 C58.55127874 36.25134289 60.60202751 36.38613324 64 36 C66.10517434 34.99766876 66.10517434 34.99766876 67.875 33.4375 C68.54273438 32.89738281 69.21046875 32.35726562 69.8984375 31.80078125 C70.93871094 30.90939453 70.93871094 30.90939453 72 30 C72.75539063 29.35417969 73.51078125 28.70835937 74.2890625 28.04296875 C76.20805928 26.37825599 78.11074861 24.69831641 80 23 C83.34079177 24.48395079 85.83006344 26.39445546 88.5625 28.8125 C89.32691406 29.47894531 90.09132813 30.14539063 90.87890625 30.83203125 C93.06081174 33.06215565 94.50901275 35.27049299 96 38 C95.13375 38.97839844 94.2675 39.95679688 93.375 40.96484375 C92.24884277 42.2880785 91.12390672 43.61235322 90 44.9375 C89.42765625 45.57751953 88.8553125 46.21753906 88.265625 46.87695312 C84.67502235 51.17285272 83.1788617 54.27331119 83.59228516 59.9309082 C84.19137605 62.97120481 85.43233309 65.08767981 87.1875 67.625 C90.93216463 73.49868767 92.86074446 79.11387156 94.76171875 85.75 C96.06220906 89.16327425 97.13523116 90.77715159 100 93 C106.14673321 95.47086503 113.61525785 95.4195689 120 96 C120 103.59 120 111.18 120 119 C117.669375 119.103125 115.33875 119.20625 112.9375 119.3125 C105.02494375 119.72719563 105.02494375 119.72719563 98 123 C94.11083486 128.11109878 92.89687307 134.70123169 91.1484375 140.7578125 C90.01220152 143.96555355 88.62504311 146.42423081 86.75 149.25 C84.24598858 153.19765066 83.06990833 156.13446404 83.41015625 160.83984375 C84.53966963 164.97640601 87.18891264 167.8597455 90 171 C90.96092555 172.16453251 91.9195303 173.33098693 92.875 174.5 C93.57625 175.325 94.2775 176.15 95 177 C93.38989473 181.07376031 90.46177729 183.76507069 87.375 186.75 C86.859375 187.25660156 86.34375 187.76320313 85.8125 188.28515625 C84.54616661 189.52803902 83.2736856 190.76465276 82 192 C77.74496822 190.59941709 75.16598276 188.57379502 71.9375 185.5 C66.79724511 180.58494207 66.79724511 180.58494207 60.1640625 178.640625 C56.25233338 179.08492016 53.61544042 180.67241896 50.375 182.75 C44.92747458 186.06746868 39.67769984 188.40681128 33.5234375 190.2109375 C29.94350398 191.33035944 27.74371233 192.09332972 25.32421875 195.04296875 C23.51345781 199.08646738 23.19018326 202.93224246 22.8125 207.3125 C22.544375 210.179375 22.27625 213.04625 22 216 C14.74 216 7.48 216 0 216 C-0.103125 214.02 -0.20625 212.04 -0.3125 210 C-1.03840194 200.6006067 -1.03840194 200.6006067 -6.12890625 192.93359375 C-9.49144063 190.66902978 -12.82126372 189.65322517 -16.6875 188.625 C-21.77257766 187.18095352 -26.04568203 185.63164485 -30.5 182.6875 C-34.05537166 180.40826341 -36.71433731 178.99339784 -41 179.34765625 C-45.37482501 180.77460113 -48.62618856 183.9816437 -52 187 C-53.35331704 188.14683668 -54.70740112 189.29276929 -56.0625 190.4375 C-57.031875 191.283125 -58.00125 192.12875 -59 193 C-63.68904588 191.57699887 -66.51610475 188.84303666 -69.8125 185.375 C-70.56563477 184.6015625 -70.56563477 184.6015625 -71.33398438 183.8125 C-72.56296227 182.54840846 -73.78246001 181.27511194 -75 180 C-73.74500418 176.3654824 -72.46278994 174.14625197 -69.625 171.5625 C-64.19787169 166.61229856 -64.19787169 166.61229856 -61.80859375 159.90625 C-62.05206484 155.59754954 -63.00398126 152.87697391 -65.37890625 149.28515625 C-68.60478274 144.31727165 -70.06571786 139.10149903 -71.671875 133.44726562 C-73.20045468 128.44116719 -74.80686922 125.40036699 -79 122 C-85.35573252 119.35177812 -92.19033261 119.42121654 -99 119 C-99 111.41 -99 103.82 -99 96 C-90.375 95.25 -90.375 95.25 -87.69287109 95.04394531 C-82.51592392 94.52893054 -78.90493082 93.69635885 -75 90 C-73.46464115 87.06624956 -72.48402253 84.02997455 -71.5 80.875 C-69.33383375 74.41491062 -67.12552174 68.75658849 -63.06640625 63.203125 C-61.48559246 59.93726794 -61.57428904 57.58143993 -62 54 C-63.77028303 51.03445255 -63.77028303 51.03445255 -66.25 48.4375 C-69.48509107 44.73879745 -72.40881242 41.16843219 -75 37 C-70.67106815 31.81580806 -66.23435005 27.27293882 -61 23 C-56.46635306 24.44515157 -53.74203039 26.81076246 -50.3125 30.0625 C-45.13248897 35.19033379 -45.13248897 35.19033379 -38.21875 36.4765625 C-34.20321969 35.61407184 -30.98374731 33.09978471 -27.5390625 30.94140625 C-22.92527635 28.23912212 -17.87629111 26.69931939 -12.78759766 25.13037109 C-8.58631305 23.78334215 -5.58829483 22.65444109 -3 19 C-2.12524452 15.94988961 -2.12524452 15.94988961 -1.8125 12.625 C-1.67457031 11.52414062 -1.53664063 10.42328125 -1.39453125 9.2890625 C-1.26433594 8.20367188 -1.13414062 7.11828125 -1 6 C-0.67 4.02 -0.34 2.04 0 0 Z " fill="#CBD9EB" transform="translate(755,570)"/>
<path d="M0 0 C1.70362283 -0.00374058 3.40724395 -0.00834373 5.11086237 -0.01373065 C9.77397133 -0.02592523 14.43700835 -0.02570438 19.1001296 -0.02334189 C24.13636974 -0.02293284 29.17258708 -0.03398121 34.20881653 -0.04345703 C44.06814024 -0.06004769 53.92744003 -0.06556567 63.78677653 -0.06668179 C71.80178987 -0.06763301 79.81679533 -0.07174703 87.83180618 -0.07808304 C110.56633997 -0.09568882 133.3008549 -0.10492274 156.03539555 -0.10342209 C157.26021801 -0.10334218 158.48504047 -0.10326227 159.74697876 -0.10317993 C160.97329992 -0.10309817 162.19962108 -0.10301641 163.46310349 -0.10293217 C183.34219562 -0.10211907 203.22121201 -0.12126448 223.10028224 -0.14945666 C243.52224627 -0.17818986 263.94417337 -0.19199677 284.36615813 -0.19026911 C295.82750564 -0.18960545 307.28877371 -0.19508777 318.750103 -0.21662521 C328.50689274 -0.23484252 338.26356702 -0.23917964 348.02036642 -0.22560637 C352.9960581 -0.21908004 357.9715283 -0.21894761 362.94719887 -0.23631287 C367.5070053 -0.25206285 372.06641497 -0.24916029 376.62621184 -0.2317446 C378.27080105 -0.228679 379.91542001 -0.23229043 381.55997412 -0.24346475 C396.82919236 -0.34029813 410.29379507 2.80430552 421.8866272 13.39242554 C430.92716468 23.05423219 434.50344309 33.86587384 434.48965454 46.79769897 C434.49637177 47.71593445 434.50308899 48.63416992 434.51000977 49.58023071 C434.52890358 52.59581006 434.53290972 55.61116579 434.5350647 58.62680054 C434.54149901 60.73896371 434.54822784 62.85112601 434.55523682 64.96328735 C434.56718836 69.38467473 434.57091986 73.8059841 434.56973267 78.22738647 C434.5695297 83.86706893 434.59681895 89.50624624 434.63127708 95.14580917 C434.65361725 99.50754044 434.65756801 103.86915155 434.65651321 108.23093414 C434.65885895 110.30876657 434.66762396 112.38660283 434.68317795 114.46437836 C434.79855426 131.46973088 433.18028178 144.53155227 421.13272095 157.49008179 C412.3579085 165.8881581 401.04458708 170.5110091 388.89289665 170.52469444 C387.8356108 170.52995355 387.8356108 170.52995355 386.75696564 170.53531891 C384.40117063 170.54460368 382.04562443 170.53971721 379.68981934 170.53485107 C377.98124876 170.53858882 376.27267989 170.54319084 374.56411374 170.54858172 C369.87335439 170.56081198 365.18266637 170.56055121 360.49189472 170.55819297 C355.43104262 170.5577848 350.37021339 170.56882401 345.30937195 170.57830811 C335.39515868 170.59491984 325.4809692 170.60041775 315.56674318 170.60153286 C307.50637683 170.60248337 299.44601832 170.6065938 291.38565445 170.61293411 C268.52778684 170.63054794 245.66993801 170.6397729 222.81206356 170.63827316 C221.57983362 170.63819325 220.34760369 170.63811334 219.07803345 170.63803101 C217.84429686 170.63794924 216.61056028 170.63786748 215.33943774 170.63778324 C195.35089965 170.63697057 175.36243695 170.6561031 155.37392066 170.68430774 C134.84469563 170.71304646 114.31550734 170.72684745 93.78626168 170.72512019 C82.26279843 170.72445657 70.7394142 170.72993638 59.21596909 170.75147629 C49.40314078 170.76970117 39.59042729 170.77402473 29.77758937 170.76045744 C24.77344136 170.7539341 19.76951355 170.75378772 14.76538658 170.77116394 C10.17826948 170.78692789 5.59154657 170.78399714 1.00443889 170.76659568 C-0.64900603 170.76353306 -2.30248062 170.76713014 -3.95589055 170.77831583 C-17.82066727 170.86585086 -29.55364518 168.90453704 -40.8008728 160.26742554 C-41.6671228 159.68992554 -42.5333728 159.11242554 -43.4258728 158.51742554 C-51.86078326 150.52645774 -57.5059615 139.05488788 -57.94804382 127.38121033 C-57.96311276 125.77895032 -57.97265527 124.17663266 -57.97787476 122.5743103 C-57.98444595 121.69727951 -57.99101715 120.82024872 -57.99778748 119.91664124 C-58.0174945 117.01403714 -58.02918118 114.11148489 -58.03915405 111.20883179 C-58.04322958 110.2137303 -58.04730511 109.21862881 -58.05150414 108.19337273 C-58.07236004 102.91996342 -58.08666034 97.64658004 -58.09603882 92.37313843 C-58.10706466 86.95317742 -58.14142169 81.53363132 -58.18121052 76.11381626 C-58.20749601 71.92447707 -58.21574151 67.73523462 -58.2193203 63.54582024 C-58.22416036 61.54974523 -58.23569973 59.55367379 -58.25435829 57.55768013 C-58.41157807 39.61490597 -56.23469226 26.22884144 -43.6758728 12.57992554 C-31.18438915 0.57130596 -16.32651423 -0.03406989 0 0 Z M-30.6133728 28.57992554 C-31.15606812 29.11230835 -31.69876343 29.64469116 -32.25790405 30.19320679 C-36.57582206 35.99780037 -37.24586136 41.34013265 -37.22079468 48.34872437 C-37.22926422 49.23101212 -37.23773376 50.11329987 -37.24645996 51.02232361 C-37.26975384 53.92318356 -37.27085381 56.82351059 -37.2696228 59.72445679 C-37.27672979 61.7531607 -37.28442957 63.78186261 -37.29269409 65.81056213 C-37.30612206 70.05804025 -37.30771558 74.30533256 -37.30184937 78.55282593 C-37.29595989 83.97652929 -37.32652201 89.39933547 -37.36696625 94.82286549 C-37.39290985 99.01211795 -37.39571452 103.20115642 -37.39207458 107.39047813 C-37.3937601 109.38902729 -37.40334743 111.38758694 -37.42121887 113.3860569 C-37.77571519 129.47900133 -37.77571519 129.47900133 -30.07467651 143.14884949 C-21.70695811 151.35711762 -11.28206571 150.69896027 -0.34094238 150.65510559 C1.35000688 150.65928068 3.04095334 150.66475916 4.73189461 150.6714254 C9.36921493 150.68587582 14.00635745 150.68163653 18.64368749 150.67425859 C23.64857351 150.66952822 28.653421 150.68203563 33.65829468 150.692276 C43.45975036 150.70947202 53.26114197 150.71030232 63.06260882 150.7050631 C71.02954007 150.70102158 78.99645238 150.70246474 86.96338272 150.70781136 C88.09730968 150.70855978 89.23123664 150.7093082 90.39952502 150.7100793 C92.70310544 150.71161078 95.00668586 150.71314913 97.31026627 150.71469427 C118.91291627 150.72842227 140.51553005 150.72297955 162.11817922 150.71150906 C181.87912237 150.70157684 201.63997188 150.71451664 221.40090059 150.73844325 C241.69397458 150.76282896 261.98700496 150.77244338 282.28009331 150.76579052 C293.67209669 150.76229707 305.06402805 150.76453869 316.45602036 150.78204155 C326.15399975 150.79675691 335.85185643 150.79740764 345.5498334 150.77997064 C350.49690568 150.77145275 355.44375866 150.76933043 360.39081955 150.78462219 C364.92223622 150.79845565 369.45324545 150.79372334 373.98463847 150.77438296 C375.62117358 150.77061852 377.25774123 150.77355771 378.8942474 150.78399461 C389.46310785 150.84658853 398.72780097 150.38875922 407.0741272 143.14242554 C415.76163734 133.34159619 414.80574637 121.48544834 414.76553345 109.17367554 C414.77077659 107.21651922 414.77705559 105.25936544 414.78431702 103.30221558 C414.79468756 99.21383719 414.79020732 95.12580759 414.77554321 91.03744507 C414.75834991 85.81892056 414.78187531 80.60149662 414.81703281 75.38309479 C414.83907426 71.34566056 414.8375492 67.30848703 414.8292675 63.27101135 C414.82845189 61.34783215 414.83524013 59.42463306 414.85003853 57.50151062 C415.12096983 41.73171836 415.12096983 41.73171836 407.44377136 28.38302612 C401.77414333 22.94633651 395.65406962 20.89349398 387.89454746 20.8871088 C387.18988062 20.88244888 386.48521378 20.87778897 385.75919339 20.87298784 C383.40398318 20.86106126 381.04935235 20.8704239 378.69413757 20.87974548 C376.98612681 20.87557154 375.27811883 20.87009369 373.57011598 20.86342567 C368.8810695 20.84896037 364.19219862 20.85321919 359.50314248 20.86059248 C354.44442536 20.86531914 349.38574651 20.85281878 344.32704163 20.84257507 C334.41850304 20.82537209 324.51002782 20.82455015 314.60147817 20.82978798 C306.54869351 20.83382799 298.4959276 20.83238812 290.44314384 20.82703972 C289.2974025 20.8262913 288.15166116 20.82554287 286.97120039 20.82477177 C284.64369897 20.82324031 282.31619756 20.82170196 279.98869615 20.82015681 C258.15815645 20.80642643 236.32765258 20.81187332 214.4971137 20.82334202 C194.52136086 20.83327575 174.54570064 20.82033224 154.56996209 20.79640783 C134.06222716 20.77203116 113.55453538 20.76240538 93.04678625 20.76906055 C81.53187106 20.77255585 70.01702712 20.77030014 58.50212288 20.75280952 C48.70012473 20.73810551 38.89824799 20.7374286 29.09625227 20.75488044 C24.09475337 20.76340747 19.09347152 20.76549838 14.0919838 20.75022888 C9.51313892 20.73642268 4.93469789 20.74109246 0.35587662 20.76046812 C-1.30016815 20.76424094 -2.95624496 20.76126934 -4.61226129 20.75085647 C-14.80403144 20.69133061 -23.04986286 20.86919399 -30.6133728 28.57992554 Z " fill="#1A202C" transform="translate(279.8008728027344,361.7325744628906)"/>
<path d="M0 0 C11.95562023 9.39112163 20.82733741 21.59384712 23 37 C23.73188868 48.42029826 24.01532708 59.47441225 19 70 C18.649375 70.78117188 18.29875 71.56234375 17.9375 72.3671875 C14.72471514 78.81506822 10.01829484 83.89443047 5 89 C4.15115234 89.86818359 4.15115234 89.86818359 3.28515625 90.75390625 C-7.98962307 101.31195143 -23.36761345 104.66175427 -38.375 104.27734375 C-54.20634112 103.06610968 -68.39661123 95.77389272 -79 84 C-83.9214363 77.5727511 -87.48510016 70.68371409 -90 63 C-90.22558594 62.319375 -90.45117188 61.63875 -90.68359375 60.9375 C-94.49092597 47.07355924 -92.2590843 32.11048739 -85.9375 19.4375 C-77.12478533 4.0106305 -64.70413343 -4.63872641 -48 -10 C-31.37656539 -14.29346987 -13.65887901 -10.05001131 0 0 Z " fill="#181E2A" transform="translate(800,632)"/>
<path d="M0 0 C5.16524547 3.83492788 8.56418579 8.32637358 11.75 13.875 C12.1109375 14.48730469 12.471875 15.09960938 12.84375 15.73046875 C16.7046537 23.82764178 15.88354202 35.59937395 13.125 43.875 C8.66793299 54.30610068 1.34279242 61.67194621 -9.0390625 66.11328125 C-19.15234414 69.59753906 -29.94797252 68.95986049 -39.55859375 64.4296875 C-49.55854342 58.65322891 -56.36262725 49.97691675 -59.83984375 39.015625 C-62.07694307 27.34009712 -59.52080408 18.0116209 -53.5 8.125 C-40.88708741 -9.79861263 -17.48605187 -11.15625934 0 0 Z " fill="#F2F5F8" transform="translate(788.25,648.125)"/>
<path d="M0 0 C6.17168903 4.15402146 8.71248794 9.13746382 11 16 C11.068991 18.06145107 11.08467727 20.12501401 11.0625 22.1875 C11.05347656 23.27417969 11.04445313 24.36085937 11.03515625 25.48046875 C11.02355469 26.31191406 11.01195312 27.14335937 11 28 C11.94875 28.268125 12.8975 28.53625 13.875 28.8125 C17 30 17 30 19 33 C19.46241172 36.77623286 19.37032982 40.57347543 19.375 44.375 C19.39949219 45.4165625 19.42398438 46.458125 19.44921875 47.53125 C19.47864716 55.20225474 19.47864716 55.20225474 17.1015625 59.1640625 C13.97303467 61.89716302 12.24070256 62.13180514 8.1706543 62.17700195 C6.66350105 62.19625481 6.66350105 62.19625481 5.12590027 62.21589661 C4.03634537 62.22328354 2.94679047 62.23067047 1.82421875 62.23828125 C0.70690872 62.246353 -0.41040131 62.25442474 -1.56156921 62.26274109 C-3.92962081 62.27658946 -6.29769243 62.28730823 -8.66577148 62.29516602 C-12.28733138 62.31238037 -15.907979 62.35626128 -19.52929688 62.40039062 C-21.82811828 62.41051715 -24.12694745 62.41903338 -26.42578125 62.42578125 C-27.50926346 62.44328934 -28.59274567 62.46079742 -29.70906067 62.47883606 C-37.24018067 62.45711229 -37.24018067 62.45711229 -41.16088867 60.09838867 C-45.16938088 55.52478048 -44.25947271 50.45093149 -44.3125 44.625 C-44.34150391 43.57054687 -44.37050781 42.51609375 -44.40039062 41.4296875 C-44.40876953 40.41390625 -44.41714844 39.398125 -44.42578125 38.3515625 C-44.44036377 37.42166504 -44.45494629 36.49176758 -44.4699707 35.53369141 C-43.85714497 32.22984441 -42.59200929 31.06900571 -40 29 C-37.25 28.25 -37.25 28.25 -35 28 C-35.05800781 27.01 -35.11601563 26.02 -35.17578125 25 C-35.7122068 12.04540488 -35.7122068 12.04540488 -31.55859375 6.64453125 C-22.58734819 -2.82136945 -12.22579175 -6.5344749 0 0 Z " fill="#191F2B" transform="translate(698,215)"/>
<path d="M0 0 C2.69990662 1.79993774 4.5418865 3.083773 6 6 C6.23274209 8.87910588 6.41972757 11.74146495 6.5625 14.625 C6.60568359 15.42679687 6.64886719 16.22859375 6.69335938 17.0546875 C6.79951457 19.0362511 6.90026855 21.01810271 7 23 C7.7734375 22.4946875 8.546875 21.989375 9.34375 21.46875 C20.49102773 14.51549755 20.49102773 14.51549755 27 16 C30.29420787 18.88243189 31.76884408 20.74148444 32.5625 25.0625 C31.81291551 28.97699676 30.94971826 30.25607604 28 33 C25.16962967 34.69987256 22.29966533 36.25659583 19.36328125 37.765625 C17.10529739 38.79490409 17.10529739 38.79490409 16 40 C16.81984375 40.44730469 17.6396875 40.89460938 18.484375 41.35546875 C19.56203125 41.96003906 20.6396875 42.56460938 21.75 43.1875 C22.81734375 43.77917969 23.8846875 44.37085938 24.984375 44.98046875 C28.07539197 47.05048918 29.93458477 48.92395404 32 52 C32.5625 55 32.5625 55 32 58 C29.4981901 61.41155896 27.84589894 62.77022457 23.75 63.8828125 C19.18575107 64.02544528 16.67970989 62.57502811 13.0625 60.0625 C12.47404297 59.67642578 11.88558594 59.29035156 11.27929688 58.89257812 C9.84135269 57.94563927 8.41896983 56.97514167 7 56 C6.96132813 57.75376953 6.96132813 57.75376953 6.921875 59.54296875 C6.86557633 61.09118226 6.80822938 62.6393579 6.75 64.1875 C6.73582031 64.95642578 6.72164062 65.72535156 6.70703125 66.51757812 C6.49062351 71.5598785 5.78183522 74.3390129 2 78 C-0.85324437 79.42662219 -2.83454549 79.31033868 -6 79 C-8.69990662 77.20006226 -10.5418865 75.916227 -12 73 C-12.23274209 70.12089412 -12.41972757 67.25853505 -12.5625 64.375 C-12.60568359 63.57320313 -12.64886719 62.77140625 -12.69335938 61.9453125 C-12.79951457 59.9637489 -12.90026855 57.98189729 -13 56 C-13.92941406 56.58910156 -14.85882812 57.17820312 -15.81640625 57.78515625 C-17.06449568 58.54527086 -18.31322831 59.30433005 -19.5625 60.0625 C-20.17158203 60.45244141 -20.78066406 60.84238281 -21.40820312 61.24414062 C-24.90695891 63.33598932 -26.60750839 64.01246643 -30.8125 63.87890625 C-34 63 -34 63 -36.4375 60.875 C-38.43514338 57.19933618 -38.66350721 55.12848931 -38 51 C-34.49074043 46.24551929 -29.30185897 43.44781308 -24 41 C-23.34 41 -22.68 41 -22 41 C-25.03235456 37.63847537 -28.70938092 35.78271154 -32.625 33.59765625 C-35.09252894 31.93775602 -36.46744594 30.53441788 -38 28 C-38.40735108 24.08942968 -38.23050673 21.28706255 -36 18 C-32.94350819 15.96233879 -31.11770704 15.4171515 -27.47265625 15.46484375 C-22.1156327 16.62426275 -17.53577323 20.03662816 -13 23 C-12.97421875 21.83082031 -12.9484375 20.66164063 -12.921875 19.45703125 C-12.86557633 17.90881774 -12.80822938 16.3606421 -12.75 14.8125 C-12.72873047 13.65911133 -12.72873047 13.65911133 -12.70703125 12.48242188 C-12.49062351 7.4401215 -11.78183522 4.6609871 -8 1 C-5.14675563 -0.42662219 -3.16545451 -0.31033868 0 0 Z " fill="#191F2A" transform="translate(527,408)"/>
<path d="M0 0 C2.6796875 1.37890625 2.6796875 1.37890625 5 4 C5.62341999 7.43356453 5.47068193 10.77486477 5.3125 14.25 C5.28994141 15.18585938 5.26738281 16.12171875 5.24414062 17.0859375 C5.18530595 19.39225674 5.10317146 21.69530838 5 24 C5.9178125 23.4225 6.835625 22.845 7.78125 22.25 C9.02027402 21.49907635 10.25988948 20.74912799 11.5 20 C12.40105469 19.42765625 12.40105469 19.42765625 13.3203125 18.84375 C18.09387338 15.9999265 21.44806921 15.38829724 27 16 C30.0625 18.5625 30.0625 18.5625 32 22 C32.1474245 26.20159815 31.59651967 28.21105463 29.0625 31.5625 C24.95922709 34.82837028 20.55965449 37.42357387 16 40 C16.81984375 40.44730469 17.6396875 40.89460938 18.484375 41.35546875 C19.56203125 41.96003906 20.6396875 42.56460938 21.75 43.1875 C22.81734375 43.77917969 23.8846875 44.37085938 24.984375 44.98046875 C28.09525525 47.0637914 29.98052635 48.85859655 32 52 C32.52808934 54.89371405 32.07445033 57.27123727 31 60 C28.3125 62.5625 28.3125 62.5625 25 64 C20.09432407 63.67250008 16.78249273 61.97819 12.625 59.4375 C11.56539063 58.79683594 10.50578125 58.15617187 9.4140625 57.49609375 C8.61742187 57.00238281 7.82078125 56.50867188 7 56 C6.96261719 57.09699219 6.92523438 58.19398438 6.88671875 59.32421875 C6.82103347 60.77867857 6.75458701 62.23310416 6.6875 63.6875 C6.65366211 64.7693457 6.65366211 64.7693457 6.61914062 65.87304688 C6.39455101 70.34442197 5.84576902 73.35660451 3 77 C-0.76499581 79.5099972 -2.54293606 79.61476744 -7 79 C-11.29975557 75.02037222 -12.56943171 72.24232287 -12.79492188 66.4296875 C-12.80072266 65.66914063 -12.80652344 64.90859375 -12.8125 64.125 C-12.83763672 63.34125 -12.86277344 62.5575 -12.88867188 61.75 C-12.94709064 59.83386445 -12.97651926 57.91688207 -13 56 C-13.92941406 56.58910156 -14.85882813 57.17820312 -15.81640625 57.78515625 C-17.06449568 58.54527086 -18.31322831 59.30433005 -19.5625 60.0625 C-20.17158203 60.45244141 -20.78066406 60.84238281 -21.40820312 61.24414062 C-24.92056568 63.34412459 -26.58885544 64.01685019 -30.8125 63.84375 C-34.52271292 62.86163481 -35.92439374 62.23794577 -38 59 C-38.6699701 54.3102093 -38.88381803 52.23734525 -36.125 48.375 C-31.95715286 45.20743617 -27.55366407 42.57304125 -23 40 C-23.58007812 39.62488281 -24.16015625 39.24976563 -24.7578125 38.86328125 C-27.19104464 37.26923313 -29.59605581 35.63780913 -32 34 C-32.63808594 33.59394531 -33.27617187 33.18789063 -33.93359375 32.76953125 C-36.18077402 31.19057725 -37.78140264 29.77617902 -38.5390625 27.0859375 C-38.82106574 23.12304982 -38.22470335 21.32684124 -35.9375 18 C-32.20016023 15.45542824 -30.47085628 15.55660929 -26 16 C-23.34628901 17.0704508 -20.98339792 18.48341633 -18.5625 20 C-17.92634766 20.3815625 -17.29019531 20.763125 -16.63476562 21.15625 C-15.08155008 22.09051499 -13.53955137 23.04338556 -12 24 C-12.04640625 22.75863281 -12.0928125 21.51726562 -12.140625 20.23828125 C-12.17815421 18.59637829 -12.21455314 16.95444923 -12.25 15.3125 C-12.28351563 14.49587891 -12.31703125 13.67925781 -12.3515625 12.83789062 C-12.41862016 8.69707993 -12.35846774 6.5725115 -10.109375 2.98046875 C-6.74555129 -0.17778795 -4.57701328 -0.44872679 0 0 Z " fill="#191F2A" transform="translate(424,408)"/>
<path d="M0 0 C3.65907504 0.68607657 5.35167676 1.98984314 8 4.5625 C9.1482685 6.859037 9.11561175 8.14563167 9.09765625 10.6953125 C9.09443359 11.50097656 9.09121094 12.30664062 9.08789062 13.13671875 C9.07532227 14.39935547 9.07532227 14.39935547 9.0625 15.6875 C9.05798828 16.53699219 9.05347656 17.38648438 9.04882812 18.26171875 C9.03702874 20.36200909 9.01909306 22.4622633 9 24.5625 C9.92941406 23.985 10.85882812 23.4075 11.81640625 22.8125 C13.06462011 22.06169467 14.31334562 21.3117395 15.5625 20.5625 C16.17158203 20.1809375 16.78066406 19.799375 17.40820312 19.40625 C21.7296672 16.8453824 24.85164175 15.95644326 30 16.5625 C32.9375 18.625 32.9375 18.625 35 21.5625 C35.64715901 25.58926715 35.62504716 27.61973291 33.35546875 31.04296875 C30.71002418 33.87267314 28.13130868 35.50057888 24.75 37.375 C23.67234375 37.97957031 22.5946875 38.58414063 21.484375 39.20703125 C20.66453125 39.65433594 19.8446875 40.10164063 19 40.5625 C19.81984375 41.00980469 20.6396875 41.45710938 21.484375 41.91796875 C22.56203125 42.52253906 23.6396875 43.12710938 24.75 43.75 C25.81734375 44.34167969 26.8846875 44.93335938 27.984375 45.54296875 C31.07554924 47.6130945 32.93767274 49.48374002 35 52.5625 C35.6303761 56.3447566 35.30215998 58.01861204 33.4375 61.375 C30.20528265 64.27570788 28.32172326 64.42966015 24 64.5625 C21.29354453 63.58960954 18.97798889 62.1714241 16.5625 60.625 C15.92634766 60.23892578 15.29019531 59.85285156 14.63476562 59.45507812 C13.07939972 58.50782521 11.53815699 57.53744833 10 56.5625 C9.98582031 57.80386719 9.97164062 59.04523438 9.95703125 60.32421875 C9.910118 61.96618243 9.86187068 63.60810837 9.8125 65.25 C9.80669922 66.06662109 9.80089844 66.88324219 9.79492188 67.72460938 C9.63600205 72.08607577 9.39845377 74.04257456 6.66796875 77.60546875 C4 79.5625 4 79.5625 0.5 80.1875 C-4.03469977 79.37773218 -5.24755254 78.24021843 -8 74.5625 C-8.59998169 71.26663976 -8.474195 68.08589228 -8.3125 64.75 C-8.28994141 63.86634766 -8.26738281 62.98269531 -8.24414062 62.07226562 C-8.18547428 59.9016109 -8.09579979 57.7318331 -8 55.5625 C-9.07378906 56.22378906 -10.14757812 56.88507813 -11.25390625 57.56640625 C-12.68951374 58.4202643 -14.12574514 59.27307399 -15.5625 60.125 C-16.26697266 60.56263672 -16.97144531 61.00027344 -17.69726562 61.45117188 C-21.48601923 63.66855302 -23.40656349 64.58621375 -27.91015625 64.40625 C-32.49512916 63.154222 -32.49512916 63.154222 -34 60.5625 C-35.26247672 55.74930752 -35.69865549 53.81009909 -33.25 49.4375 C-29.33072425 45.37306588 -24.00178636 43.03273424 -19 40.5625 C-19.90363281 40.03140625 -20.80726563 39.5003125 -21.73828125 38.953125 C-22.92994056 38.24000604 -24.12133287 37.52644077 -25.3125 36.8125 C-26.20485352 36.29042969 -26.20485352 36.29042969 -27.11523438 35.7578125 C-30.45850309 33.74064478 -33.02037611 31.96606388 -35 28.5625 C-35.72001783 24.42239748 -35.16116027 22.83445796 -33 19.1875 C-29.7459288 16.3401877 -28.37096084 16.07811069 -24.1484375 16.22021484 C-20.45285692 16.80898802 -17.62116533 18.57995721 -14.5 20.5625 C-13.86835937 20.9440625 -13.23671875 21.325625 -12.5859375 21.71875 C-11.04769734 22.65101676 -9.52240046 23.60458511 -8 24.5625 C-8.05800781 23.24894531 -8.11601563 21.93539063 -8.17578125 20.58203125 C-8.22269048 18.84638977 -8.26818939 17.11070977 -8.3125 15.375 C-8.35439453 14.51068359 -8.39628906 13.64636719 -8.43945312 12.75585938 C-8.52660387 8.20659034 -8.4966782 6.21808195 -5.66796875 2.484375 C-3 0.5625 -3 0.5625 0 0 Z " fill="#181E2A" transform="translate(625,407.4375)"/>
<path d="M0 0 C2.86984345 2.04570474 4.74805389 3.61959973 5.40014648 7.19238281 C5.49206194 9.74972035 5.43638468 12.25666375 5.3125 14.8125 C5.28994141 15.69615234 5.26738281 16.57980469 5.24414062 17.49023438 C5.18547428 19.6608891 5.09579979 21.8306669 5 24 C5.92941406 23.4225 6.85882813 22.845 7.81640625 22.25 C9.06462011 21.49919467 10.31334562 20.7492395 11.5625 20 C12.17158203 19.6184375 12.78066406 19.236875 13.40820312 18.84375 C17.73971397 16.27692876 20.84121144 15.44212372 26 16 C29.74879143 18.03738665 30.77169934 19.31509801 32.125 23.375 C31.99604369 27.11473295 31.45114065 28.79291829 28.87890625 31.51171875 C24.96017591 34.61574424 20.46643508 36.79415991 16 39 C19.80188121 42.18867456 23.80048192 44.8329031 28.01171875 47.4375 C30.20557172 49.16154949 31.0577251 50.39219054 32 53 C31.85475479 56.48588499 31.38666699 58.44974313 29.375 61.3125 C26.12194667 63.62388 23.99476358 63.87833207 20 64 C17.11106672 62.87664501 14.63512606 61.27674248 12.0625 59.5625 C11.37865234 59.12873047 10.69480469 58.69496094 9.99023438 58.24804688 C8.3157972 57.18249595 6.65629485 56.0935383 5 55 C5.05800781 56.31355469 5.11601562 57.62710938 5.17578125 58.98046875 C5.22269048 60.71611023 5.26818939 62.45179023 5.3125 64.1875 C5.35439453 65.05181641 5.39628906 65.91613281 5.43945312 66.80664062 C5.52614306 71.33185536 5.48703872 73.34730185 2.703125 77.078125 C-0.82643587 79.58758157 -2.75685881 79.69433219 -7 79 C-9.36497439 77.13291495 -10.66030715 75.67938569 -12 73 C-12.23274209 70.12089412 -12.41972757 67.25853505 -12.5625 64.375 C-12.60568359 63.57320313 -12.64886719 62.77140625 -12.69335938 61.9453125 C-12.79951457 59.9637489 -12.90026855 57.98189729 -13 56 C-13.92941406 56.58910156 -14.85882813 57.17820312 -15.81640625 57.78515625 C-17.06449568 58.54527086 -18.31322831 59.30433005 -19.5625 60.0625 C-20.17158203 60.45244141 -20.78066406 60.84238281 -21.40820312 61.24414062 C-24.92056568 63.34412459 -26.58885544 64.01685019 -30.8125 63.84375 C-34.52271292 62.86163481 -35.92439374 62.23794577 -38 59 C-38.6699701 54.3102093 -38.88381803 52.23734525 -36.125 48.375 C-31.95715286 45.20743617 -27.55366407 42.57304125 -23 40 C-23.49628906 39.70867187 -23.99257813 39.41734375 -24.50390625 39.1171875 C-37.25614833 31.42228621 -37.25614833 31.42228621 -38.609375 27.015625 C-38.87561912 23.08112861 -38.20375995 21.2963781 -35.9375 18 C-32.21606939 15.46626001 -30.44858247 15.59221327 -26 16 C-22.47265625 17.53125 -22.47265625 17.53125 -19.0625 19.5 C-17.91910156 20.1496875 -16.77570313 20.799375 -15.59765625 21.46875 C-14.74042969 21.9740625 -13.88320313 22.479375 -13 23 C-12.97421875 21.83082031 -12.9484375 20.66164063 -12.921875 19.45703125 C-12.86557633 17.90881774 -12.80822938 16.3606421 -12.75 14.8125 C-12.72873047 13.65911133 -12.72873047 13.65911133 -12.70703125 12.48242188 C-12.49062351 7.4401215 -11.78183522 4.6609871 -8 1 C-5.11138291 -0.44430855 -3.20352299 -0.37688506 0 0 Z " fill="#181E2A" transform="translate(321,408)"/>
<path d="M0 0 C1.07314453 -0.02900391 2.14628906 -0.05800781 3.25195312 -0.08789062 C9.74798338 -0.13960428 15.13346096 0.26689142 20.4375 4.3125 C23.22293118 7.49528156 24.34795839 10.59616714 24.875 14.8125 C24.11420972 20.89882221 22.10086671 25.29235628 17.4375 29.3125 C18.81207685 34.53589204 21.36236566 38.57500011 24.29296875 43.04296875 C24.67066406 43.79191406 25.04835938 44.54085937 25.4375 45.3125 C25.1075 46.3025 24.7775 47.2925 24.4375 48.3125 C15.389934 49.08948563 15.389934 49.08948563 12.0625 46.375 C6.4375 35.77403846 6.4375 35.77403846 6.4375 32.3125 C3.7975 32.3125 1.1575 32.3125 -1.5625 32.3125 C-1.55089844 33.38371094 -1.53929687 34.45492187 -1.52734375 35.55859375 C-1.51796701 36.95572743 -1.50886669 38.35286299 -1.5 39.75 C-1.49162109 40.45705078 -1.48324219 41.16410156 -1.47460938 41.89257812 C-1.46596412 43.69943559 -1.51029989 45.50637603 -1.5625 47.3125 C-2.5625 48.3125 -2.5625 48.3125 -4.59375 48.4453125 C-5.4084375 48.44273437 -6.223125 48.44015625 -7.0625 48.4375 C-7.8771875 48.44007813 -8.691875 48.44265625 -9.53125 48.4453125 C-11.5625 48.3125 -11.5625 48.3125 -12.5625 47.3125 C-12.66063987 45.87509647 -12.6904828 44.43293673 -12.69189453 42.9921875 C-12.69504669 42.07453613 -12.69819885 41.15688477 -12.70144653 40.21142578 C-12.6994223 39.21353027 -12.69739807 38.21563477 -12.6953125 37.1875 C-12.69626923 36.17026855 -12.69722595 35.15303711 -12.69821167 34.10498047 C-12.69889361 31.94954364 -12.69703835 29.79410478 -12.69287109 27.63867188 C-12.68752305 24.32677629 -12.69281563 21.01501633 -12.69921875 17.703125 C-12.69855797 15.61458303 -12.69727681 13.52604115 -12.6953125 11.4375 C-12.69733673 10.43960449 -12.69936096 9.44170898 -12.70144653 8.41357422 C-12.69829437 7.49592285 -12.69514221 6.57827148 -12.69189453 5.6328125 C-12.69109894 4.82086426 -12.69030334 4.00891602 -12.68948364 3.17236328 C-12.34122569 -1.92838954 -3.80632845 0.03344753 0 0 Z " fill="#1B1E2B" transform="translate(455.5625,618.6875)"/>
<path d="M0 0 C2.74609375 0.03125 2.74609375 0.03125 5.4375 0.875 C8.43346664 4.21227929 10.41724688 7.96616472 12.43457031 11.93603516 C13.81638892 14.60750628 15.32794257 17.19670422 16.83935547 19.79638672 C18.39547995 22.47618668 19.91577097 25.17554983 21.4375 27.875 C21.46255615 27.09261963 21.4876123 26.31023926 21.51342773 25.50415039 C21.62899788 21.98175051 21.75189949 18.4596444 21.875 14.9375 C21.91431641 13.70580078 21.95363281 12.47410156 21.99414062 11.20507812 C22.03603516 10.03525391 22.07792969 8.86542969 22.12109375 7.66015625 C22.15775146 6.57613525 22.19440918 5.49211426 22.23217773 4.37524414 C22.4375 1.875 22.4375 1.875 23.4375 0.875 C24.93488124 0.7770943 26.43692892 0.74525136 27.9375 0.75 C28.7521875 0.74742187 29.566875 0.74484375 30.40625 0.7421875 C32.4375 0.875 32.4375 0.875 33.4375 1.875 C33.53563987 3.31240353 33.5654828 4.75456327 33.56689453 6.1953125 C33.57004669 7.11296387 33.57319885 8.03061523 33.57644653 8.97607422 C33.5744223 9.97396973 33.57239807 10.97186523 33.5703125 12 C33.57126923 13.01723145 33.57222595 14.03446289 33.57321167 15.08251953 C33.57389361 17.23795636 33.57203835 19.39339522 33.56787109 21.54882812 C33.56252305 24.86072371 33.56781563 28.17248367 33.57421875 31.484375 C33.57355797 33.57291697 33.57227681 35.66145885 33.5703125 37.75 C33.57233673 38.74789551 33.57436096 39.74579102 33.57644653 40.77392578 C33.57171829 42.15040283 33.57171829 42.15040283 33.56689453 43.5546875 C33.56609894 44.36663574 33.56530334 45.17858398 33.56448364 46.01513672 C33.4375 47.875 33.4375 47.875 32.4375 48.875 C30.51171875 49.1484375 30.51171875 49.1484375 28.125 49.25 C27.34511719 49.29898438 26.56523437 49.34796875 25.76171875 49.3984375 C21.68723662 48.48082304 19.94138078 44.66628996 17.79003906 41.2878418 C17.26635742 40.39234619 16.74267578 39.49685059 16.203125 38.57421875 C15.62949219 37.59775391 15.05585938 36.62128906 14.46484375 35.61523438 C13.87832031 34.60783203 13.29179687 33.60042969 12.6875 32.5625 C12.08550781 31.53576172 11.48351562 30.50902344 10.86328125 29.45117188 C9.38448173 26.92782349 7.90935412 24.40240377 6.4375 21.875 C6.41244385 22.65738037 6.3873877 23.43976074 6.36157227 24.24584961 C6.24600212 27.76824949 6.12310051 31.2903556 6 34.8125 C5.96068359 36.04419922 5.92136719 37.27589844 5.88085938 38.54492188 C5.83896484 39.71474609 5.79707031 40.88457031 5.75390625 42.08984375 C5.69891968 43.71587524 5.69891968 43.71587524 5.64282227 45.37475586 C5.4375 47.875 5.4375 47.875 4.4375 48.875 C2.94011876 48.9729057 1.43807108 49.00474864 -0.0625 49 C-0.8771875 49.00257813 -1.691875 49.00515625 -2.53125 49.0078125 C-4.5625 48.875 -4.5625 48.875 -5.5625 47.875 C-5.66063987 46.43759647 -5.6904828 44.99543673 -5.69189453 43.5546875 C-5.69504669 42.63703613 -5.69819885 41.71938477 -5.70144653 40.77392578 C-5.6994223 39.77603027 -5.69739807 38.77813477 -5.6953125 37.75 C-5.69626923 36.73276855 -5.69722595 35.71553711 -5.69821167 34.66748047 C-5.69889361 32.51204364 -5.69703835 30.35660478 -5.69287109 28.20117188 C-5.68752305 24.88927629 -5.69281563 21.57751633 -5.69921875 18.265625 C-5.69855797 16.17708303 -5.69727681 14.08854115 -5.6953125 12 C-5.69733673 11.00210449 -5.69936096 10.00420898 -5.70144653 8.97607422 C-5.69829437 8.05842285 -5.69514221 7.14077148 -5.69189453 6.1953125 C-5.69109894 5.38336426 -5.69030334 4.57141602 -5.68948364 3.73486328 C-5.4480784 0.19912636 -3.13738292 0.3927716 0 0 Z " fill="#1A202D" transform="translate(365.5625,618.125)"/>
<path d="M0 0 C4.70795241 2.15631408 7.76357139 4.96358811 10.546875 9.3125 C10.921875 12.625 10.921875 12.625 10.546875 15.3125 C9.546875 16.3125 9.546875 16.3125 5.796875 16.6875 C2.1885955 16.66827293 1.76624956 16.52117337 -1.015625 13.875 C-1.82 13.029375 -2.624375 12.18375 -3.453125 11.3125 C-7.61400894 10.10206104 -9.70020961 10.02838098 -13.765625 11.5625 C-16.66020749 13.19567124 -16.66020749 13.19567124 -18.453125 16.3125 C-18.81021896 19.57302786 -18.81021896 19.57302786 -18.765625 23.1875 C-18.78238281 24.40179687 -18.79914063 25.61609375 -18.81640625 26.8671875 C-18.3398709 31.38658729 -16.81577243 33.94985257 -13.640625 37.125 C-10.63224311 38.7581216 -8.8402857 38.7867025 -5.453125 38.3125 C-1.12749975 35.98331717 0.31383871 34.77857258 2.546875 30.3125 C-1.083125 30.3125 -4.713125 30.3125 -8.453125 30.3125 C-8.453125 27.6725 -8.453125 25.0325 -8.453125 22.3125 C-1.523125 22.3125 5.406875 22.3125 12.546875 22.3125 C13.05849336 37.49051133 13.05849336 37.49051133 8 42.99609375 C2.22630747 48.32270832 -3.22748461 49.74128695 -10.9921875 49.56640625 C-16.6707479 48.98052303 -21.48009834 46.39008 -25.453125 42.3125 C-30.53266367 33.7174614 -33.16539857 25.65237333 -30.83984375 15.68359375 C-28.32810271 8.43605902 -24.0169481 4.16968337 -17.59375 0.1484375 C-12.27872595 -1.92713758 -5.42875354 -1.52143411 0 0 Z " fill="#1B1D2A" transform="translate(305.453125,618.6875)"/>
<path d="M0 0 C5.27785477 3.16497387 8.62261247 6.96474113 10.30859375 12.921875 C11.24957794 18.54589679 10.20235136 24.00756384 7.30859375 28.921875 C2.51149598 34.275673 -2.3209151 36.93233742 -9.50390625 37.359375 C-16.27283752 37.21814544 -20.45878132 34.21325322 -25.06640625 29.484375 C-28.36040929 24.28998559 -29.57709939 19.0412094 -28.69140625 12.921875 C-27.02327223 6.96585285 -23.65094734 3.15914511 -18.3828125 0 C-12.35243946 -2.41565016 -6.03037304 -2.41565016 0 0 Z " fill="#181E2A" transform="translate(313.69140625,222.078125)"/>
<path d="M0 0 C3.96 0 7.92 0 12 0 C15.71772158 7.75410502 18.37139944 15.76096916 21.00146484 23.93066406 C21.75370932 26.26149331 22.51901474 28.58776938 23.28515625 30.9140625 C23.76902235 32.40599299 24.25212276 33.89817207 24.734375 35.390625 C24.96243835 36.08029358 25.19050171 36.76996216 25.42547607 37.48052979 C26.63528103 41.28107804 27 43.91455019 27 48 C23.7 48 20.4 48 17 48 C14 40.25 14 40.25 14 38 C9.05 38.33 4.1 38.66 -1 39 C-2.32 41.97 -3.64 44.94 -5 48 C-7.97 48 -10.94 48 -14 48 C-14.96918304 44.12326783 -15.10170518 43.4286816 -13.9519043 39.9375 C-13.69801437 39.14988281 -13.44412445 38.36226562 -13.18254089 37.55078125 C-12.89929459 36.70902344 -12.61604828 35.86726562 -12.32421875 35 C-12.03899857 34.12730469 -11.75377838 33.25460937 -11.45991516 32.35546875 C-10.85515758 30.51142442 -10.24542645 28.66900483 -9.63110352 26.828125 C-8.69209651 24.01377646 -7.76757061 21.19500371 -6.84570312 18.375 C-6.25604929 16.58305639 -5.66558142 14.7913804 -5.07421875 13 C-4.79704514 12.15824219 -4.51987152 11.31648437 -4.23429871 10.44921875 C-3.8392791 9.26779297 -3.8392791 9.26779297 -3.4362793 8.0625 C-3.20676071 7.37285156 -2.97724213 6.68320312 -2.74076843 5.97265625 C-1.97070245 3.92198103 -0.97961936 1.95923872 0 0 Z " fill="#1A1E2A" transform="translate(499,619)"/>
<path d="M0 0 C5.51253097 5.23690442 8.61389613 9.21934141 8.875 17.0625 C8.81678476 23.08050075 7.59964637 26.9443926 3.5 31.375 C-1.87726835 35.56926931 -6.16994155 36.79105534 -12.86328125 36.72265625 C-18.40035059 35.9925834 -22.12789276 32.81932342 -25.875 28.875 C-29.55032843 23.22064857 -30.49778909 18.0642595 -29.5 11.375 C-27.37492123 6.23792941 -24.15473974 2.43732878 -19.5 -0.625 C-13.28539389 -2.69653537 -5.9411618 -2.75839655 0 0 Z " fill="#181E2A" transform="translate(381.5,222.625)"/>
<path d="M0 0 C5.00006627 2.13417463 8.95808488 6.07613556 11.375 10.953125 C13.14143743 16.73820757 12.85598287 22.83656953 10.4375 28.375 C7.59291714 33.32254234 3.34168966 36.21943678 -2 38 C-8.36013702 38.7907808 -12.97539562 38.25285575 -18.2421875 34.5 C-22.47142544 30.89105029 -25.62627696 27.30477949 -26.2734375 21.58203125 C-26.52689871 14.67033904 -25.57816234 10.27483922 -21 5 C-14.51801828 -0.87900667 -8.57507527 -0.97785946 0 0 Z " fill="#181E2A" transform="translate(245,221)"/>
<path d="M0 0 C1.30066406 -0.00128906 2.60132813 -0.00257813 3.94140625 -0.00390625 C4.96258545 -0.00076416 4.96258545 -0.00076416 6.00439453 0.00244141 C8.08503515 0.0077901 10.16545989 0.0024957 12.24609375 -0.00390625 C14.19708984 -0.00197266 14.19708984 -0.00197266 16.1875 0 C17.39083984 0.00112793 18.59417969 0.00225586 19.83398438 0.00341797 C22.59375 0.1328125 22.59375 0.1328125 23.59375 1.1328125 C23.78125 4.5703125 23.78125 4.5703125 23.59375 8.1328125 C21.59375 10.1328125 21.59375 10.1328125 19.71435547 10.35986328 C18.97072754 10.34938965 18.22709961 10.33891602 17.4609375 10.328125 C16.25244141 10.31845703 16.25244141 10.31845703 15.01953125 10.30859375 C14.17777344 10.29183594 13.33601563 10.27507813 12.46875 10.2578125 C11.19451172 10.24427734 11.19451172 10.24427734 9.89453125 10.23046875 C7.79415116 10.20686897 5.69391556 10.17099733 3.59375 10.1328125 C3.92375 12.7728125 4.25375 15.4128125 4.59375 18.1328125 C5.73714844 18.19339844 6.88054687 18.25398437 8.05859375 18.31640625 C9.54949305 18.40079678 11.04037775 18.48544552 12.53125 18.5703125 C13.28599609 18.60962891 14.04074219 18.64894531 14.81835938 18.68945312 C20.48046875 19.01953125 20.48046875 19.01953125 21.59375 20.1328125 C21.59375 22.7728125 21.59375 25.4128125 21.59375 28.1328125 C13.17875 28.6278125 13.17875 28.6278125 4.59375 29.1328125 C4.59375 31.7728125 4.59375 34.4128125 4.59375 37.1328125 C6.52541016 37.22369141 6.52541016 37.22369141 8.49609375 37.31640625 C10.17449159 37.40079497 11.85287636 37.4854438 13.53125 37.5703125 C14.80645508 37.62928711 14.80645508 37.62928711 16.10742188 37.68945312 C17.32075195 37.75229492 17.32075195 37.75229492 18.55859375 37.81640625 C19.68189087 37.87139282 19.68189087 37.87139282 20.82788086 37.92749023 C22.59375 38.1328125 22.59375 38.1328125 23.59375 39.1328125 C23.7265625 40.9453125 23.7265625 40.9453125 23.71875 43.1328125 C23.72261719 44.215625 23.72261719 44.215625 23.7265625 45.3203125 C23.59375 47.1328125 23.59375 47.1328125 22.59375 48.1328125 C20.46021826 48.23284539 18.32337458 48.26362298 16.1875 48.265625 C14.88683594 48.26691406 13.58617187 48.26820313 12.24609375 48.26953125 C11.56530762 48.26743652 10.88452148 48.2653418 10.18310547 48.26318359 C8.10246485 48.2578349 6.02204011 48.2631293 3.94140625 48.26953125 C1.99041016 48.26759766 1.99041016 48.26759766 0 48.265625 C-1.20333984 48.26449707 -2.40667969 48.26336914 -3.64648438 48.26220703 C-6.40625 48.1328125 -6.40625 48.1328125 -7.40625 47.1328125 C-7.50438987 45.69540897 -7.5342328 44.25324923 -7.53564453 42.8125 C-7.53879669 41.89484863 -7.54194885 40.97719727 -7.54519653 40.03173828 C-7.5431723 39.03384277 -7.54114807 38.03594727 -7.5390625 37.0078125 C-7.54001923 35.99058105 -7.54097595 34.97334961 -7.54196167 33.92529297 C-7.54264361 31.76985614 -7.54078835 29.61441728 -7.53662109 27.45898438 C-7.53127305 24.14708879 -7.53656563 20.83532883 -7.54296875 17.5234375 C-7.54230797 15.43489553 -7.54102681 13.34635365 -7.5390625 11.2578125 C-7.54108673 10.25991699 -7.54311096 9.26202148 -7.54519653 8.23388672 C-7.54204437 7.31623535 -7.53889221 6.39858398 -7.53564453 5.453125 C-7.53484894 4.64117676 -7.53405334 3.82922852 -7.53323364 2.99267578 C-7.24190303 -1.274292 -3.46364286 0.00324659 0 0 Z " fill="#1B1E2A" transform="translate(413.40625,618.8671875)"/>
<path d="M0 0 C1.25554687 -0.00128906 2.51109375 -0.00257813 3.8046875 -0.00390625 C4.46178711 -0.00181152 5.11888672 0.0002832 5.79589844 0.00244141 C7.80411335 0.00779016 9.81210459 0.00249559 11.8203125 -0.00390625 C13.07585937 -0.00261719 14.33140625 -0.00132812 15.625 0 C16.78644531 0.00112793 17.94789063 0.00225586 19.14453125 0.00341797 C21.8125 0.1328125 21.8125 0.1328125 22.8125 1.1328125 C22.8125 3.7728125 22.8125 6.4128125 22.8125 9.1328125 C16.8725 9.4628125 10.9325 9.7928125 4.8125 10.1328125 C4.8125 12.7728125 4.8125 15.4128125 4.8125 18.1328125 C5.95589844 18.19339844 7.09929687 18.25398437 8.27734375 18.31640625 C9.76824305 18.40079678 11.25912775 18.48544552 12.75 18.5703125 C13.50474609 18.60962891 14.25949219 18.64894531 15.03710938 18.68945312 C20.69921875 19.01953125 20.69921875 19.01953125 21.8125 20.1328125 C21.9375 23.6328125 21.9375 23.6328125 21.8125 27.1328125 C19.75327598 29.19203652 15.59541876 28.54708829 12.75 28.6953125 C11.61208008 28.76008789 11.61208008 28.76008789 10.45117188 28.82617188 C8.57184562 28.93254883 6.69219756 29.03321184 4.8125 29.1328125 C4.4825 32.1028125 4.1525 35.0728125 3.8125 38.1328125 C5.85244141 38.11541016 5.85244141 38.11541016 7.93359375 38.09765625 C9.7057278 38.08827988 11.47786333 38.07917952 13.25 38.0703125 C14.14783203 38.06193359 15.04566406 38.05355469 15.97070312 38.04492188 C16.82470703 38.04169922 17.67871094 38.03847656 18.55859375 38.03515625 C19.34935303 38.02991943 20.1401123 38.02468262 20.95483398 38.01928711 C22.8125 38.1328125 22.8125 38.1328125 23.8125 39.1328125 C23.9453125 40.9453125 23.9453125 40.9453125 23.9375 43.1328125 C23.94136719 44.215625 23.94136719 44.215625 23.9453125 45.3203125 C23.8125 47.1328125 23.8125 47.1328125 22.8125 48.1328125 C20.67896826 48.23284539 18.54212458 48.26362298 16.40625 48.265625 C15.10558594 48.26691406 13.80492187 48.26820313 12.46484375 48.26953125 C11.78405762 48.26743652 11.10327148 48.2653418 10.40185547 48.26318359 C8.32121485 48.2578349 6.24079011 48.2631293 4.16015625 48.26953125 C2.20916016 48.26759766 2.20916016 48.26759766 0.21875 48.265625 C-0.98458984 48.26449707 -2.18792969 48.26336914 -3.42773438 48.26220703 C-6.1875 48.1328125 -6.1875 48.1328125 -7.1875 47.1328125 C-7.28563987 45.69540897 -7.3154828 44.25324923 -7.31689453 42.8125 C-7.32004669 41.89484863 -7.32319885 40.97719727 -7.32644653 40.03173828 C-7.3244223 39.03384277 -7.32239807 38.03594727 -7.3203125 37.0078125 C-7.32126923 35.99058105 -7.32222595 34.97334961 -7.32321167 33.92529297 C-7.32389361 31.76985614 -7.32203835 29.61441728 -7.31787109 27.45898438 C-7.31252305 24.14708879 -7.31781563 20.83532883 -7.32421875 17.5234375 C-7.32355797 15.43489553 -7.32227681 13.34635365 -7.3203125 11.2578125 C-7.32233673 10.25991699 -7.32436096 9.26202148 -7.32644653 8.23388672 C-7.32329437 7.31623535 -7.32014221 6.39858398 -7.31689453 5.453125 C-7.31609894 4.64117676 -7.31530334 3.82922852 -7.31448364 2.99267578 C-7.02724233 -1.21439812 -3.43913158 0.00333989 0 0 Z " fill="#1B1B28" transform="translate(331.1875,618.8671875)"/>
<path d="M0 0 C7.1465625 -0.0309375 7.1465625 -0.0309375 14.4375 -0.0625 C15.9423999 -0.071604 17.4472998 -0.08070801 18.99780273 -0.09008789 C20.17286377 -0.09258545 21.3479248 -0.09508301 22.55859375 -0.09765625 C24.37315063 -0.10551147 24.37315063 -0.10551147 26.22436523 -0.11352539 C29 0 29 0 30 1 C30.125 4.5 30.125 4.5 30 8 C28.48578999 9.51421001 27.07527232 9.21309856 24.96484375 9.31640625 C24.15595703 9.35830078 23.34707031 9.40019531 22.51367188 9.44335938 C21.2384668 9.50233398 21.2384668 9.50233398 19.9375 9.5625 C18.65649414 9.62727539 18.65649414 9.62727539 17.34960938 9.69335938 C15.23327963 9.79976702 13.11666187 9.90041731 11 10 C11 12.64 11 15.28 11 18 C12.14339844 18.06058594 13.28679688 18.12117187 14.46484375 18.18359375 C15.95574305 18.26798428 17.44662775 18.35263302 18.9375 18.4375 C19.69224609 18.47681641 20.44699219 18.51613281 21.22460938 18.55664062 C26.88671875 18.88671875 26.88671875 18.88671875 28 20 C28.1328125 21.8125 28.1328125 21.8125 28.125 24 C28.12886719 25.0828125 28.12886719 25.0828125 28.1328125 26.1875 C28 28 28 28 27 29 C24.13732433 29.07325168 21.299281 29.09238205 18.4375 29.0625 C17.63119141 29.05798828 16.82488281 29.05347656 15.99414062 29.04882812 C13.99606244 29.03700518 11.99802217 29.01906914 10 29 C10.33 31.64 10.66 34.28 11 37 C12.93166016 37.09087891 12.93166016 37.09087891 14.90234375 37.18359375 C16.58074159 37.26798247 18.25912636 37.3526313 19.9375 37.4375 C21.21270508 37.49647461 21.21270508 37.49647461 22.51367188 37.55664062 C23.72700195 37.61948242 23.72700195 37.61948242 24.96484375 37.68359375 C26.08814087 37.73858032 26.08814087 37.73858032 27.23413086 37.79467773 C29 38 29 38 30 39 C30.1328125 40.8125 30.1328125 40.8125 30.125 43 C30.12886719 44.0828125 30.12886719 44.0828125 30.1328125 45.1875 C30 47 30 47 29 48 C26.85441173 48.08775605 24.70595579 48.10695219 22.55859375 48.09765625 C21.38353271 48.09515869 20.20847168 48.09266113 18.99780273 48.09008789 C17.49290283 48.08098389 15.98800293 48.07187988 14.4375 48.0625 C9.673125 48.041875 4.90875 48.02125 0 48 C0 32.16 0 16.32 0 0 Z " fill="#1A1D2A" transform="translate(564,619)"/>
<path d="M0 0 C11.88 0 23.76 0 36 0 C36 2.97 36 5.94 36 9 C34.26043342 10.73956658 31.8063378 10.37190386 29.4375 10.5625 C28.42558594 10.64628906 27.41367187 10.73007812 26.37109375 10.81640625 C25.58863281 10.87699219 24.80617188 10.93757812 24 11 C23.97494385 12.08531006 23.9498877 13.17062012 23.92407227 14.28881836 C23.83016245 18.301316 23.72990233 22.31363382 23.62768555 26.32592773 C23.58427427 28.06514288 23.54260388 29.80440235 23.50268555 31.54370117 C23.44513232 34.03838488 23.3813958 36.5328441 23.31640625 39.02734375 C23.29133751 40.2007859 23.29133751 40.2007859 23.26576233 41.39793396 C23.11387171 46.88612829 23.11387171 46.88612829 22 48 C20.50261876 48.0979057 19.00057108 48.12974864 17.5 48.125 C16.6853125 48.12757813 15.870625 48.13015625 15.03125 48.1328125 C13 48 13 48 12 47 C11.91141354 44.26105915 11.88476521 41.5474673 11.90234375 38.80859375 C11.9037587 37.98875504 11.90517365 37.16891632 11.90663147 36.32423401 C11.91224711 33.69528618 11.92480221 31.06642227 11.9375 28.4375 C11.94251299 26.65950643 11.94707624 24.88151154 11.95117188 23.10351562 C11.96222161 18.73564455 11.97949669 14.36783652 12 10 C11.21753906 10.01160156 10.43507813 10.02320313 9.62890625 10.03515625 C8.61699219 10.04417969 7.60507812 10.05320312 6.5625 10.0625 C5.55316406 10.07410156 4.54382813 10.08570313 3.50390625 10.09765625 C1 10 1 10 0 9 C0 6.03 0 3.06 0 0 Z " fill="#1B1E2A" transform="translate(523,619)"/>
<path d="M0 0 C2.75329021 1.79562405 4.52627461 3.05254922 6 6 C6.1377685 9.67015275 6.04271961 13.32611348 6 17 C-0.27 17 -6.54 17 -13 17 C-13.49070632 6.81784387 -13.49070632 6.81784387 -11.125 2.875 C-7.44036356 -0.3761498 -4.88113514 -0.41365552 0 0 Z " fill="#F5F7FA" transform="translate(689,226)"/>
<path d="M0 0 C0.66 0.33 1.32 0.66 2 1 C2 32.02 2 63.04 2 95 C1.01 95.495 1.01 95.495 0 96 C-1.65478225 92.6904355 -1.13805869 88.99728808 -1.12939453 85.359375 C-1.13114685 84.46496704 -1.13289917 83.57055908 -1.13470459 82.64904785 C-1.13911788 79.68267902 -1.13618694 76.71636947 -1.1328125 73.75 C-1.13348569 71.69498686 -1.13445584 69.6399738 -1.13571167 67.58496094 C-1.13718793 63.27408084 -1.13503636 58.96322144 -1.13037109 54.65234375 C-1.12467385 49.11706902 -1.12795324 43.58184277 -1.13394356 38.04656982 C-1.13755108 33.80191683 -1.1364097 29.5572754 -1.13381577 25.31262207 C-1.13314703 23.27119949 -1.13397307 21.22977586 -1.13629532 19.18835449 C-1.13882496 16.3390829 -1.1349768 13.48989066 -1.12939453 10.640625 C-1.13141876 9.7906897 -1.13344299 8.94075439 -1.13552856 8.06506348 C-1.11426393 2.22852785 -1.11426393 2.22852785 0 0 Z " fill="#282C36" transform="translate(223,399)"/>
<path d="M0 0 C0.33 0 0.66 0 1 0 C1.09262544 11.79577606 1.16372724 23.5914658 1.20724869 35.38753128 C1.22813543 40.86476728 1.25647319 46.34175472 1.30175781 51.81884766 C1.34517637 57.1032328 1.36912892 62.38737867 1.37950897 67.67192841 C1.38690749 69.68940753 1.40135487 71.70687336 1.42292023 73.72425079 C1.45190101 76.54725076 1.45595822 79.36925835 1.45410156 82.19238281 C1.46848267 83.02891891 1.48286377 83.86545502 1.49768066 84.7273407 C1.47077643 88.50065982 1.36074932 90.5463957 -1.02838135 93.55047607 C-1.6790155 94.02881897 -2.32964966 94.50716187 -3 95 C-2.91575533 82.90873859 -2.82093445 70.81761139 -2.71247292 58.72654152 C-2.66244939 53.11264153 -2.61612003 47.49876093 -2.578125 41.88476562 C-2.54134854 36.47063883 -2.49500974 31.05667184 -2.44193649 25.64268112 C-2.4233518 23.57337614 -2.40825905 21.50403685 -2.39665604 19.43468094 C-2.37986309 16.54433956 -2.35084541 13.65436745 -2.31884766 10.76416016 C-2.31668747 9.90173203 -2.31452728 9.03930389 -2.31230164 8.15074158 C-2.22810432 2.22810432 -2.22810432 2.22810432 0 0 Z " fill="#B3B8BE" transform="translate(716,402)"/>
<path d="M0 0 C9.1796875 -0.1953125 9.1796875 -0.1953125 12 0 C14 2 14 2 14.265625 3.875 C14.26046875 4.57625 14.2553125 5.2775 14.25 6 C14.25515625 6.70125 14.2603125 7.4025 14.265625 8.125 C14 10 14 10 12 12 C7.98805634 12.27783543 4.02552638 12.0856495 0 12 C0 8.04 0 4.08 0 0 Z " fill="#02D9DD" transform="translate(454,629)"/>
<path d="M0 0 C3.39108911 3.39108911 3.39108911 3.39108911 4.1875 6.9375 C4.34605469 7.60652344 4.50460937 8.27554688 4.66796875 8.96484375 C5 11 5 11 5 15 C2.03 15 -0.94 15 -4 15 C-2.68 10.05 -1.36 5.1 0 0 Z " fill="#03DDE0" transform="translate(504,632)"/>
<path d="M0 0 C2.97922593 -0.02683987 5.95821295 -0.04676037 8.9375 -0.0625 C10.21270508 -0.07506836 10.21270508 -0.07506836 11.51367188 -0.08789062 C12.32255859 -0.09111328 13.13144531 -0.09433594 13.96484375 -0.09765625 C14.7137085 -0.10289307 15.46257324 -0.10812988 16.23413086 -0.11352539 C18 0 18 0 19 1 C19.1328125 2.8125 19.1328125 2.8125 19.125 5 C19.12886719 6.0828125 19.12886719 6.0828125 19.1328125 7.1875 C19 9 19 9 18 10 C16.00035018 10.08758003 13.9976389 10.10696576 11.99609375 10.09765625 C10.78115234 10.09443359 9.56621094 10.09121094 8.31445312 10.08789062 C7.03505859 10.07951172 5.75566406 10.07113281 4.4375 10.0625 C3.15423828 10.05798828 1.87097656 10.05347656 0.54882812 10.04882812 C-2.63416022 10.03699545 -5.81705762 10.02051068 -9 10 C-9 9.67 -9 9.34 -9 9 C-0.42 8.67 8.16 8.34 17 8 C17 6.35 17 4.7 17 3 C11.39 2.67 5.78 2.34 0 2 C0 1.34 0 0.68 0 0 Z " fill="#1F0A14" transform="translate(575,657)"/>
<path d="M0 0 C2.97 0 5.94 0 9 0 C8 4 8 4 5.3125 6.25 C1.7228359 8.14642632 -0.01971812 8.69222294 -4 8 C-6.375 6 -6.375 6 -8 4 C-5.03 4.495 -5.03 4.495 -2 5 C-1.34 3.35 -0.68 1.7 0 0 Z " fill="#03DADE" transform="translate(298,650)"/>
<path d="M0 0 C0.66 0 1.32 0 2 0 C2 1.32 2 2.64 2 4 C3.10859375 3.95359375 4.2171875 3.9071875 5.359375 3.859375 C6.82288968 3.82184898 8.28643356 3.78544971 9.75 3.75 C10.47960937 3.71648438 11.20921875 3.68296875 11.9609375 3.6484375 C15.57714601 3.58268825 17.58432087 3.69208953 20.53125 5.875 C22 8 22 8 21.75 10.25 C21.5025 10.8275 21.255 11.405 21 12 C20.34 10.35 19.68 8.7 19 7 C17.71222656 6.93941406 16.42445313 6.87882813 15.09765625 6.81640625 C13.41925841 6.73201753 11.74087364 6.6473687 10.0625 6.5625 C9.21236328 6.52318359 8.36222656 6.48386719 7.48632812 6.44335938 C6.67744141 6.40146484 5.86855469 6.35957031 5.03515625 6.31640625 C4.2862915 6.27974854 3.53742676 6.24309082 2.76586914 6.20532227 C1 6 1 6 0 5 C-0.04063832 3.33382885 -0.042721 1.66611905 0 0 Z " fill="#03E3E6" transform="translate(417,651)"/>
<path d="M0 0 C0.33 0 0.66 0 1 0 C0.67 7.92 0.34 15.84 0 24 C-0.66 24.33 -1.32 24.66 -2 25 C-2.05786668 21.20839703 -2.09355054 17.41690689 -2.125 13.625 C-2.14175781 12.54476563 -2.15851562 11.46453125 -2.17578125 10.3515625 C-2.18222656 9.3203125 -2.18867187 8.2890625 -2.1953125 7.2265625 C-2.20578613 6.27346191 -2.21625977 5.32036133 -2.22705078 4.33837891 C-2 2 -2 2 0 0 Z " fill="#0A0E17" transform="translate(656,246)"/>
<path d="M0 0 C4.49183088 1.41932179 6.91113915 3.67040433 10.1875 7 C15.2143937 11.74003291 19.11548574 13.67145485 26 14 C23 16 23 16 20.26171875 15.96484375 C15.95037733 14.68951281 13.21783129 12.42268754 9.8125 9.5625 C8.59042751 8.56308784 7.36779165 7.56436408 6.14453125 6.56640625 C5.61190674 6.12240479 5.07928223 5.67840332 4.53051758 5.22094727 C3.08202453 4.06543383 1.54172957 3.02781971 0 2 C0 1.34 0 0.68 0 0 Z " fill="#E3EAF2" transform="translate(694,593)"/>
<path d="M0 0 C0.66 0.33 1.32 0.66 2 1 C1.319375 1.5259375 1.319375 1.5259375 0.625 2.0625 C-2.94463495 6.31860321 -3.2615341 11.63855102 -3 17 C-3.99 17 -4.98 17 -6 17 C-6.62757528 7.0459588 -6.62757528 7.0459588 -4.125 2.875 C-2 1 -2 1 0 0 Z " fill="#EEF1F2" transform="translate(682,226)"/>
<path d="M0 0 C0.33 0 0.66 0 1 0 C1.31461385 7.09629025 1.44572039 12.68284595 -2 19 C-2.66 18.67 -3.32 18.34 -4 18 C-3.34 13.71 -2.68 9.42 -2 5 C-1.67 5 -1.34 5 -1 5 C-0.67 3.35 -0.34 1.7 0 0 Z " fill="#C2CEDD" transform="translate(756,571)"/>
<path d="M0 0 C0.33 0.66 0.66 1.32 1 2 C0.67 2.66 0.34 3.32 0 4 C0.66 4 1.32 4 2 4 C2.33 4.99 2.66 5.98 3 7 C0.36 7.33 -2.28 7.66 -5 8 C-4.64950425 4.75791433 -4.43778819 3.38472296 -1.9375 1.1875 C-1.298125 0.795625 -0.65875 0.40375 0 0 Z " fill="#05CDD3" transform="translate(505,639)"/>
<path d="M0 0 C0.33 0 0.66 0 1 0 C1.45572917 1.98567708 1.91145833 3.97135417 2.3671875 5.95703125 C2.98007723 8.27742974 2.98007723 8.27742974 5 11 C3.02 11 1.04 11 -1 11 C-1.14285714 3.57142857 -1.14285714 3.57142857 0 0 Z " fill="#EAECEF" transform="translate(654,746)"/>
<path d="M0 0 C3.3 0.33 6.6 0.66 10 1 C8.515 2.485 8.515 2.485 7 4 C3.3125 3.6875 3.3125 3.6875 0 3 C0 2.01 0 1.02 0 0 Z " fill="#21262F" transform="translate(339,468)"/>
<path d="M0 0 C0.33 0.99 0.66 1.98 1 3 C0.34 3 -0.32 3 -1 3 C-1.103125 3.598125 -1.20625 4.19625 -1.3125 4.8125 C-2.09824033 7.31258286 -2.96918853 8.37535082 -5 10 C-5.66 10 -6.32 10 -7 10 C-5.33248852 6.05860922 -2.77289351 3.2107188 0 0 Z " fill="#EDEFF1" transform="translate(635,698)"/>
<path d="M0 0 C2.64 0 5.28 0 8 0 C6.8125 1.5 6.8125 1.5 5 3 C2.3125 3.1875 2.3125 3.1875 0 3 C0 2.01 0 1.02 0 0 Z " fill="#22262D" transform="translate(596,469)"/>
<path d="M0 0 C0.99 0 1.98 0 3 0 C3 2.64 3 5.28 3 8 C2.01 8 1.02 8 0 8 C0 5.36 0 2.72 0 0 Z " fill="#1E2331" transform="translate(321,235)"/>
<path d="M0 0 C0.66 0 1.32 0 2 0 C2.33 1.32 2.66 2.64 3 4 C-0.75 6 -0.75 6 -3 6 C-2 4 -1 2 0 0 Z " fill="#02D9DD" transform="translate(250,595)"/>
<path d="M0 0 C0.66 0.33 1.32 0.66 2 1 C2 1.66 2 2.32 2 3 C0.68 3.33 -0.64 3.66 -2 4 C-2 5.65 -2 7.3 -2 9 C-2.66 9 -3.32 9 -4 9 C-3.38461538 3.46153846 -3.38461538 3.46153846 -1.4375 1.125 C-0.963125 0.75375 -0.48875 0.3825 0 0 Z " fill="#0C0F18" transform="translate(594,425)"/>
<path d="M0 0 C-0.33 0.66 -0.66 1.32 -1 2 C-4.3 2 -7.6 2 -11 2 C-6.98764085 -0.6749061 -4.6342454 -1.48957888 0 0 Z " fill="#E3E6E9" transform="translate(216,187)"/>
<path d="M0 0 C1.98 0 3.96 0 6 0 C5.67 0.99 5.34 1.98 5 3 C3.35 3 1.7 3 0 3 C0 2.01 0 1.02 0 0 Z " fill="#232731" transform="translate(392,469)"/>
<path d="M0 0 C0.99 0.33 1.98 0.66 3 1 C2.625 3.9375 2.625 3.9375 2 7 C1.01 7.495 1.01 7.495 0 8 C0 5.36 0 2.72 0 0 Z " fill="#22262C" transform="translate(350,460)"/>
<path d="M0 0 C0.33 0.99 0.66 1.98 1 3 C-1.97 5.475 -1.97 5.475 -5 8 C-5.66 7.67 -6.32 7.34 -7 7 C-4.69 4.69 -2.38 2.38 0 0 Z " fill="#080B13" transform="translate(664,734)"/>
<path d="M0 0 C0.99 0 1.98 0 3 0 C3 0.66 3 1.32 3 2 C4.32 2.66 5.64 3.32 7 4 C6.67 4.99 6.34 5.98 6 7 C4.02 4.69 2.04 2.38 0 0 Z " fill="#D8DADE" transform="translate(624,576)"/>
</svg>
